<svg width="200" height="152" viewBox="0 0 200 152" fill="none" xmlns="http://www.w3.org/2000/svg">
<g id="CampusIL Logo">
<g id="Group">
<path id="Vector" d="M92.3065 94.2449C92.3065 98.4316 95.7557 101.835 100.004 101.835C104.252 101.835 107.693 98.4316 107.693 94.2449C107.693 90.0583 104.252 86.6475 100.004 86.6475C95.7557 86.6475 92.3065 90.0506 92.3065 94.2449Z" fill="white"/>
<path id="Vector_2" d="M194.231 91.6484H115.253C115.406 92.4935 115.491 93.3538 115.491 94.2373C115.491 97.0104 114.738 99.5916 113.432 101.835H194.223C197.411 101.835 199.992 99.8835 199.992 96.7416C199.992 93.5997 197.411 91.6561 194.223 91.6561" fill="#F15859"/>
<path id="Vector_3" d="M195.698 65.5451C194.715 62.5568 191.458 60.9205 188.431 61.8884L113.071 86.0559C114.6 88.4296 115.498 91.2259 115.498 94.2372C115.498 95.3127 115.383 96.3498 115.176 97.3561L192.003 72.72C195.03 71.7521 196.689 68.5333 195.706 65.5451" fill="#FDCC09"/>
<path id="Vector_4" d="M182.032 37.767C180.165 35.2243 176.555 34.6635 173.974 36.5072L109.883 82.4607C112.902 84.9343 114.953 88.5141 115.399 92.5779L180.749 45.7179C183.33 43.8742 183.899 40.3098 182.024 37.767" fill="#70C6D1"/>
<path id="Vector_5" d="M160.338 15.5125C157.757 13.6611 154.154 14.2296 152.28 16.7723L105.712 80.0333C109.46 81.5006 112.479 84.3583 114.131 87.9688L161.621 23.4633C163.488 20.9206 162.919 17.3562 160.346 15.5125" fill="#91C653"/>
<path id="Vector_6" d="M130.908 0.371216C126.868 -0.919354 122.527 1.26233 121.214 5.24927L96.8465 79.265C97.8682 79.0576 98.9206 78.9501 100.004 78.9501C104.551 78.9501 108.631 80.8936 111.473 83.9818L135.84 9.95063C137.154 5.96369 134.941 1.67716 130.901 0.378906" fill="white"/>
<path id="Vector_7" d="M84.5016 94.2373C84.5016 91.4333 85.2775 88.8138 86.6065 86.5553H7.68966C3.44153 86.5553 0 89.9968 0 94.1912C0 98.3855 3.44153 101.827 7.68966 101.827H86.5527C85.2544 99.5916 84.5016 97.0028 84.5016 94.2296" fill="white"/>
<path id="Vector_8" d="M157.711 145.138H155.13V139.983H157.711C162.212 139.983 165.877 136.319 165.877 131.817C165.877 127.316 162.212 123.651 157.711 123.651C153.209 123.651 149.545 127.316 149.545 131.817V145.145H144.39V131.817C144.39 124.473 150.367 118.497 157.711 118.497C165.055 118.497 171.031 124.473 171.031 131.817C171.031 139.161 165.055 145.145 157.711 145.145" fill="white"/>
<path id="Vector_9" d="M91.6688 123.651C87.1672 123.651 83.5029 127.316 83.5029 131.817C83.5029 136.319 87.1672 139.983 91.6688 139.983C96.1705 139.983 99.8348 136.319 99.8348 131.817C99.8348 127.316 96.1705 123.651 91.6688 123.651ZM91.6688 145.145C84.3249 145.145 78.3406 139.169 78.3406 131.825C78.3406 124.481 84.3172 118.497 91.6688 118.497C99.0205 118.497 104.989 124.473 104.989 131.825C104.989 139.177 99.0128 145.145 91.6688 145.145Z" fill="white"/>
</g>
<path id="Vector_10" d="M112.449 118.489H107.294V145.138H112.449V118.489Z" fill="white"/>
<path id="Vector_11" d="M178.506 134.383H173.351V151.583H178.506V134.383Z" fill="white"/>
<g id="Group_2">
<path id="Vector_12" d="M186.679 118.489C179.643 118.489 173.866 123.974 173.39 130.896H178.567C179.021 126.824 182.485 123.644 186.679 123.644C191.181 123.644 194.845 127.308 194.845 131.81C194.845 136.312 191.181 139.976 186.679 139.976H184.098V145.13H186.679C194.023 145.13 200 139.154 200 131.81C200 124.466 194.023 118.482 186.679 118.482" fill="white"/>
<path id="Vector_13" d="M128.343 118.489C120.999 118.489 115.022 124.466 115.022 131.817C115.022 132.693 115.107 133.561 115.276 134.391H128.589V129.236H120.607C121.69 125.795 124.748 123.651 128.35 123.651C132.852 123.651 136.516 127.316 136.516 131.817C136.516 136.319 132.852 139.983 128.35 139.983C125.992 139.983 123.872 139.054 122.381 137.448H116.297C118.425 141.98 123.019 145.138 128.35 145.138C135.694 145.138 141.671 139.161 141.671 131.817C141.671 124.473 135.694 118.489 128.35 118.489" fill="white"/>
<path id="Vector_14" d="M0 131.579C0 142.787 9.08771 149.724 20.2957 149.724H51.9761C63.1841 149.724 72.2719 142.787 72.2719 131.579C72.2719 120.371 63.1841 113.435 51.9761 113.435H20.2957C9.08771 113.435 0 120.371 0 131.579Z" fill="#70C6D1"/>
<path id="Vector_15" d="M31.4268 121.009C31.4268 119.619 30.3053 118.497 28.9149 118.497C27.5245 118.497 26.4029 119.619 26.4029 121.009V131.956C26.4029 131.956 26.4259 131.956 26.4336 131.956V132.179C26.4336 132.179 26.4106 132.179 26.4029 132.179V143.125C26.4029 144.516 27.5245 145.637 28.9149 145.637C30.3053 145.637 31.4268 144.516 31.4268 143.125V136.872H31.4499V126.617" fill="white"/>
<path id="Vector_16" d="M40.4379 121.009C40.4379 119.619 39.3163 118.497 37.9259 118.497C36.5355 118.497 35.4139 119.619 35.4139 121.009V125.749H35.3985V142.334H35.4062C35.3908 143.202 35.46 143.74 36.0899 144.362C36.5201 144.8 37.0886 145.015 37.657 145.023H37.68H45.7231H48.3272C49.564 145.023 50.5781 144.017 50.5781 142.772C50.5781 141.528 49.5717 140.529 48.3272 140.529H40.4148V132.632" fill="white"/>
</g>
</g>
</svg>
