<svg width="120" height="28" viewBox="0 0 120 28" fill="none" xmlns="http://www.w3.org/2000/svg">
<g clip-path="url(#clip0_8826_256336)">
<path d="M100.209 18.1509C100.209 18.4331 100.292 18.7091 100.448 18.9439C100.605 19.1788 100.828 19.3619 101.088 19.4701C101.349 19.5783 101.636 19.6068 101.913 19.5518C102.19 19.4969 102.444 19.361 102.643 19.1614C102.843 18.9619 102.979 18.7076 103.034 18.4308C103.089 18.1539 103.06 17.867 102.952 17.6064C102.844 17.3457 102.661 17.1231 102.426 16.9665C102.191 16.81 101.915 16.7267 101.633 16.7272C101.445 16.7247 101.259 16.7599 101.085 16.8305C100.911 16.9012 100.753 17.006 100.621 17.1387C100.488 17.2714 100.383 17.4293 100.312 17.6031C100.242 17.777 100.207 17.9632 100.209 18.1509Z" fill="white"/>
<path d="M118.951 17.6375H104.445C104.483 17.8058 104.5 17.9783 104.495 18.1508C104.494 18.6337 104.36 19.1071 104.109 19.5197H118.951C119.539 19.5197 120 19.1843 120 18.6071C120 18.0299 119.539 17.6375 118.951 17.6375Z" fill="#F15B5B"/>
<path d="M119.204 12.7732C119.114 12.5066 118.923 12.2864 118.671 12.1607C118.419 12.0351 118.128 12.0141 117.861 12.1024L104.025 16.5879C104.326 17.0492 104.485 17.5887 104.482 18.1394C104.482 18.3082 104.441 18.5181 104.441 18.6847L118.527 14.1216C118.661 14.0796 118.786 14.011 118.893 13.9198C119.001 13.8287 119.088 13.7169 119.152 13.5911C119.215 13.4653 119.252 13.328 119.261 13.1875C119.27 13.047 119.251 12.9061 119.204 12.7732Z" fill="#FDCD0D"/>
<path d="M116.686 7.61685C116.523 7.39132 116.278 7.23861 116.003 7.1913C115.729 7.14399 115.447 7.20582 115.217 7.36359L103.438 15.9171C103.73 16.1454 103.975 16.4299 104.156 16.7539C104.337 17.0779 104.452 17.4349 104.494 17.8039L116.486 9.08388C116.598 9.00268 116.692 8.89963 116.763 8.78093C116.834 8.66224 116.881 8.53036 116.9 8.39326C116.918 8.25616 116.909 8.11669 116.872 7.98324C116.836 7.8498 116.773 7.72516 116.686 7.61685Z" fill="#71C7D1"/>
<path d="M112.709 3.46448C112.597 3.38162 112.469 3.3223 112.334 3.29011C112.199 3.25792 112.058 3.25353 111.921 3.2772C111.784 3.30088 111.653 3.35213 111.536 3.42784C111.419 3.50356 111.319 3.60218 111.242 3.71773L102.684 15.4563C103.369 15.7518 103.921 16.2895 104.235 16.9666L112.955 4.93379C113.038 4.82222 113.098 4.69495 113.131 4.55965C113.164 4.42435 113.169 4.28382 113.146 4.14653C113.123 4.00924 113.072 3.87803 112.997 3.76081C112.922 3.64359 112.824 3.54279 112.709 3.46448Z" fill="#90C653"/>
<path d="M107.294 0.655977C107.118 0.600029 106.934 0.579267 106.75 0.594883C106.567 0.610499 106.388 0.662185 106.225 0.746975C106.061 0.831765 105.916 0.947992 105.798 1.08899C105.679 1.22998 105.59 1.39297 105.535 1.56859L101.047 15.3309C101.24 15.2968 101.437 15.2831 101.633 15.2898C102.028 15.2809 102.42 15.3579 102.782 15.5154C103.144 15.673 103.467 15.9074 103.73 16.2024L108.218 2.4082C108.272 2.23248 108.292 2.0477 108.275 1.86445C108.258 1.6812 108.205 1.50308 108.119 1.3403C108.034 1.17752 107.916 1.03328 107.775 0.915853C107.633 0.798423 107.47 0.710111 107.294 0.655977Z" fill="white"/>
<path d="M98.7899 18.1509C98.8 17.6393 98.9289 17.1371 99.1664 16.6838H84.7014C84.3264 16.6879 83.9678 16.8379 83.7016 17.102C83.4354 17.3661 83.2825 17.7235 83.2754 18.0984C83.2745 18.2851 83.3106 18.4702 83.3815 18.6429C83.4525 18.8156 83.557 18.9725 83.6889 19.1047C83.8208 19.2368 83.9776 19.3415 84.1502 19.4128C84.3228 19.484 84.5078 19.5204 84.6945 19.5198H99.1595C98.9141 19.1056 98.7863 18.6323 98.7899 18.1509Z" fill="white"/>
<path d="M64.6542 19.6907H63.6047V17.5118H64.6542C65.1076 17.5235 65.5587 17.4444 65.981 17.279C66.4033 17.1136 66.7882 16.8654 67.1131 16.5488C67.4379 16.2323 67.6961 15.854 67.8723 15.4361C68.0486 15.0182 68.1394 14.5693 68.1394 14.1157C68.1394 13.6622 68.0486 13.2132 67.8723 12.7953C67.6961 12.3775 67.4379 11.9991 67.1131 11.6826C66.7882 11.3661 66.4033 11.1178 65.981 10.9524C65.5587 10.787 65.1076 10.7079 64.6542 10.7196C64.2076 10.7175 63.7651 10.8039 63.3521 10.9737C62.9392 11.1436 62.5639 11.3935 62.2481 11.7091C61.9322 12.0248 61.682 12.3999 61.5119 12.8127C61.3418 13.2256 61.2551 13.668 61.2569 14.1146V19.6907H59.1191V14.1146C59.1232 13.0158 59.453 11.9429 60.0668 11.0316C60.6807 10.1202 61.551 9.41138 62.5676 8.99465C63.5843 8.57793 64.7018 8.47204 65.7786 8.69039C66.8555 8.90873 67.8434 9.4415 68.6175 10.2213C69.3916 11.0011 69.9171 11.993 70.1274 13.0714C70.3378 14.1499 70.2237 15.2665 69.7994 16.2801C69.3752 17.2937 68.6599 18.1587 67.7441 18.7658C66.8282 19.3729 65.7529 19.6947 64.6542 19.6907Z" fill="white"/>
<path d="M37.064 19.6908C35.9613 19.6903 34.8834 19.3629 33.9668 18.7499C33.0501 18.1369 32.3357 17.2659 31.914 16.247C31.4923 15.228 31.3822 14.1069 31.5977 13.0254C31.8131 11.9439 32.3443 10.9506 33.1242 10.171C33.9042 9.39137 34.8977 8.86052 35.9793 8.64555C37.0609 8.43058 38.182 8.54114 39.2007 8.96325C40.2195 9.38536 41.0902 10.1001 41.7028 11.017C42.3154 11.9339 42.6424 13.0119 42.6424 14.1147C42.6358 15.5919 42.0459 17.0067 41.0011 18.0511C39.9563 19.0954 38.5413 19.6848 37.064 19.6908ZM37.064 10.7197C36.392 10.7197 35.7351 10.919 35.1764 11.2924C34.6177 11.6658 34.1823 12.1965 33.9252 12.8174C33.6681 13.4383 33.601 14.1215 33.7323 14.7806C33.8635 15.4396 34.1873 16.0449 34.6627 16.52C35.138 16.995 35.7435 17.3183 36.4027 17.4492C37.0618 17.58 37.745 17.5124 38.3657 17.2549C38.9864 16.9974 39.5168 16.5617 39.8898 16.0027C40.2629 15.4437 40.4617 14.7867 40.4613 14.1147C40.4631 13.6681 40.3764 13.2257 40.2063 12.8128C40.0362 12.4 39.786 12.0249 39.4701 11.7092C39.1543 11.3936 38.779 11.1436 38.3661 10.9738C37.9531 10.804 37.5106 10.7176 37.064 10.7197Z" fill="white"/>
<path fill-rule="evenodd" clip-rule="evenodd" d="M73.3751 15.1642V22.4172H71.1962V15.1642H73.3751ZM45.7867 8.5477V19.6908H43.5645V8.53857L45.7867 8.5477Z" fill="white"/>
<path d="M76.7713 8.53857C75.3608 8.5398 74.0036 9.07798 72.9755 10.0438C71.9475 11.0095 71.3256 12.3305 71.2363 13.7382H73.3741C73.445 13.0845 73.7037 12.4652 74.1188 11.9552C74.5339 11.4452 75.0878 11.0663 75.7135 10.8641C76.3393 10.662 77.0102 10.6453 77.6452 10.8161C78.2802 10.9868 78.8522 11.3378 79.2922 11.8265C79.7322 12.3152 80.0213 12.9208 80.1246 13.5703C80.228 14.2197 80.1411 14.8851 79.8746 15.4863C79.608 16.0874 79.1732 16.5986 78.6225 16.958C78.0719 17.3174 77.4289 17.5098 76.7713 17.5119H75.6808V19.6908H76.7713C78.2502 19.6908 79.6685 19.1033 80.7142 18.0576C81.76 17.0118 82.3474 15.5935 82.3474 14.1147C82.3474 12.6358 81.76 11.2175 80.7142 10.1718C79.6685 9.12605 78.2502 8.53857 76.7713 8.53857Z" fill="white"/>
<path d="M52.4124 8.53857C51.6799 8.53827 50.9546 8.68228 50.2778 8.96237C49.601 9.24246 48.986 9.65315 48.468 10.171C47.95 10.6888 47.539 11.3036 47.2587 11.9803C46.9783 12.6569 46.834 13.3822 46.834 14.1147C46.8416 14.4795 46.8698 14.8436 46.9184 15.2052H52.4945V13.0241H49.1406C49.3631 12.3343 49.801 11.734 50.3899 11.3114C50.9787 10.8889 51.6876 10.6663 52.4124 10.6764C53.3161 10.6895 54.1786 11.0574 54.8136 11.7006C55.4487 12.3438 55.8056 13.2108 55.8073 14.1147C55.7992 14.7963 55.5887 15.4602 55.2026 16.0219C54.8164 16.5837 54.2719 17.018 53.6383 17.2696C53.0048 17.5212 52.3107 17.5788 51.6443 17.4351C50.9779 17.2913 50.3693 16.9528 49.8958 16.4624H47.3382C47.7937 17.4241 48.5117 18.2374 49.4095 18.8086C50.3073 19.3798 51.3483 19.6856 52.4124 19.6908C53.8912 19.6908 55.3095 19.1033 56.3552 18.0576C57.401 17.0118 57.9884 15.5935 57.9884 14.1147C57.9884 12.6358 57.401 11.2175 56.3552 10.1718C55.3095 9.12605 53.8912 8.53857 52.4124 8.53857Z" fill="white"/>
<path d="M0 14.0303C0 18.6846 3.81474 21.621 8.46908 21.621H21.718C26.4157 21.621 30.1894 18.6846 30.1894 14.0303C30.1894 9.33489 26.4157 6.44189 21.718 6.44189H8.46908C3.81474 6.44189 0 9.33489 0 14.0303Z" fill="#71C7D1"/>
<path d="M13.544 15.9171V9.70898C13.5394 9.44575 13.4334 9.19444 13.2481 9.00743C13.0628 8.82041 12.8124 8.71212 12.5492 8.7051C12.4191 8.70659 12.2906 8.73377 12.171 8.78508C12.0514 8.8364 11.9431 8.91083 11.8524 9.00412C11.7616 9.0974 11.6902 9.20769 11.6422 9.32865C11.5942 9.44961 11.5706 9.57887 11.5727 9.70898V18.3788C11.5686 18.5082 11.5911 18.637 11.6387 18.7574C11.6863 18.8777 11.7581 18.987 11.8496 19.0785C11.9411 19.17 12.0504 19.2418 12.1707 19.2894C12.2911 19.337 12.4199 19.3595 12.5492 19.3553C12.6786 19.3584 12.8072 19.3359 12.9278 19.2891C13.0485 19.2423 13.1587 19.1722 13.2521 19.0827C13.3456 18.9933 13.4205 18.8863 13.4725 18.7679C13.5246 18.6494 13.5527 18.5219 13.5554 18.3925L13.544 15.9171ZM21.048 18.1826C21.0511 18.0661 21.0305 17.9502 20.9874 17.8419C20.9442 17.7337 20.8795 17.6353 20.797 17.5529C20.7146 17.4705 20.6163 17.4057 20.508 17.3626C20.3997 17.3194 20.2838 17.2988 20.1673 17.302H17.0667V9.62913C17.0689 9.5018 17.0454 9.37533 16.9976 9.25726C16.9499 9.1392 16.8789 9.03194 16.7888 8.94189C16.6988 8.85184 16.5915 8.78083 16.4735 8.7331C16.3554 8.68536 16.2289 8.66188 16.1016 8.66404C15.9722 8.66131 15.8435 8.68412 15.7228 8.73115C15.6022 8.77818 15.492 8.84851 15.3986 8.93814C15.3052 9.02776 15.2303 9.13491 15.1783 9.25347C15.1263 9.37204 15.0981 9.49969 15.0954 9.62913V18.0138C15.0954 18.3492 15.0954 18.5591 15.3464 18.8101C15.5154 18.9702 15.7387 19.0607 15.9716 19.0633H20.1673C20.2837 19.0661 20.3995 19.0453 20.5076 19.002C20.6158 18.9587 20.714 18.894 20.7963 18.8116C20.8787 18.7293 20.9434 18.6311 20.9867 18.523C21.0299 18.4148 21.0508 18.2991 21.048 18.1826Z" fill="white"/>
</g>
<defs>
<clipPath id="clip0_8826_256336">
<rect width="120" height="27" fill="white" transform="translate(0 0.5)"/>
</clipPath>
</defs>
</svg>
