<svg version="1.1" xmlns="http://www.w3.org/2000/svg" width="120" height="120" viewBox="0 0 120 120" preserveAspectRatio="xMidYMid meet">
  <defs>
    <style>
      .icon1 {fill:#5E8A75;fill-opacity:1;}
      .shape {fill:#F7F7F7;fill-opacity:1;}
    </style>
  </defs>
  
  <!-- Background circle -->
  <circle cx="60" cy="60" r="60" class="shape"/>
  
  <!-- Pot icon -->
  <g transform="translate(18, 15) scale(0.78)">
    <path class="icon1" d="m16.367 51.07h-3.5391c-0.86719 0-1.6523 0.35547-2.2266 0.92578-0.57031 0.57031-0.92578 1.3594-0.92578 2.2266 0 0.86719 0.35547 1.6562 0.92578 2.2266 0.57031 0.57031 1.3594 0.92578 2.2266 0.92578h3.5391zm67.234 6.7695h3.5547c0.87109 0 1.6602-0.35547 2.2344-0.92969 0.57422-0.57422 0.92969-1.3672 0.92969-2.2344 0-0.87109-0.35547-1.6602-0.92969-2.2344-0.57422-0.57422-1.3672-0.92969-2.2344-0.92969h-3.5547v6.332zm-0.83984-7.5469h-65.555v27.516c0.003907 3.5625 1.3281 6.8008 3.4609 9.1484 2.1211 2.3359 5.043 3.7852 8.2539 3.7852h0.011719l43.094-0.046876c2.9961-0.27734 5.6836-1.8203 7.6211-4.1367 1.9297-2.3125 3.1133-5.3906 3.1133-8.7656zm-65.555-1.3438h65.555v-2.1562h-65.555zm10.641-8.5508c-0.15234 0.33594-0.55078 0.48437-0.88672 0.33203-0.33594-0.15234-0.48438-0.55078-0.33203-0.88672 0.91016-1.9922 0.28516-3.4688-0.25-4.7344-0.66797-1.5781-1.2227-2.8945 0.39062-4.4766 0.26562-0.25781 0.6875-0.25781 0.94922 0.007813 0.25781 0.26562 0.25781 0.6875-0.007812 0.94922-0.96484 0.94922-0.57031 1.8828-0.09375 3 0.64062 1.5117 1.3867 3.2812 0.23437 5.8086zm-3.8477-23.801 61.125 23.312c0.79688-2.9219 0.60547-5.8984-0.40234-8.4648-1.1523-2.9414-3.3672-5.3398-6.3711-6.4844l-39.344-15.004c-3.0039-1.1445-6.2578-0.83203-9.0742 0.59375-2.457 1.2461-4.582 3.3359-5.9336 6.0469zm37.449 1.0195-4.9414-1.8828 1.0625-2.7812c0.25781-0.67969 0.77344-1.1914 1.3906-1.4688 0.61328-0.27344 1.332-0.32031 2.0039-0.066406 0.011718 0.003906 0.023437 0.007812 0.035156 0.011719 0.67188 0.26172 1.1758 0.76953 1.4492 1.3828 0.27344 0.61328 0.32031 1.332 0.066406 2.0039-0.003906 0.011719-0.011719 0.023438-0.015625 0.039063l-1.0547 2.7617zm-38.812 2.3594 61.254 23.359 0.80078-2.1016 0.019532-0.046875-61.254-23.359-0.019531 0.046875zm20.965 21.977c-0.15234 0.33594-0.55078 0.48438-0.88672 0.33203-0.33594-0.15234-0.48438-0.55078-0.33203-0.88672 0.91016-1.9922 0.28516-3.4688-0.25-4.7344-0.66797-1.5781-1.2227-2.8945 0.39063-4.4766 0.26562-0.25781 0.6875-0.25781 0.94922 0.007812 0.25781 0.26563 0.25781 0.6875-0.007812 0.94922-0.96484 0.94531-0.57031 1.8828-0.09375 3 0.64062 1.5117 1.3867 3.2812 0.23438 5.8086zm-8.7266-1.2578c-0.15234 0.33594-0.55078 0.48438-0.88672 0.33203-0.33594-0.15234-0.48438-0.55078-0.33203-0.88672 0.91016-1.9922 0.28516-3.4688-0.25-4.7344-0.66797-1.5781-1.2227-2.8945 0.39062-4.4766 0.26562-0.25781 0.6875-0.25781 0.94922 0.007812 0.25781 0.26562 0.25781 0.6875-0.007813 0.94922-0.96484 0.94531-0.57031 1.8828-0.09375 3 0.64062 1.5117 1.3867 3.2812 0.23438 5.8086z" fill-rule="evenodd"/>
  </g>
</svg>
