<svg version="1.1" preserveAspectRatio="none" xmlns="http://www.w3.org/2000/svg" width="500" height="500" viewBox="0 0 500 500"><rect width="100%" height="100%" fill="#E9E6E1" fill-opacity="1"/><svg viewBox="456.9942 342.4785 386.4852 120" width="333" height="103.39335115549055" x="83.5px" y="198.3033px" xmlns="http://www.w3.org/2000/svg" xmlns:xlink="http://www.w3.org/1999/xlink" preserveAspectRatio="none"><defs></defs><style>.aIptOCySncolors-3 {fill:#2B475C;fill-opacity:1;}.aIptOCySncolors-4 {fill:#D28640;fill-opacity:1;}.aIptOCySncolors-5 {fill:#3B6562;fill-opacity:1;}.aIptOCySncolors-6 {fill:#6D5044;fill-opacity:1;}.aIptOCySncolors-7 {fill:#E3D3BD;fill-opacity:1;}.companyName {fill:#2B475C;fill-opacity:1;}.icon1 {fill:#5E8A75;fill-opacity:1;}.icon2 {fill:#AA9C89;fill-opacity:1;}.icon3 {fill:#77A2C4;fill-opacity:1;}.icon3-str {stroke:#77A2C4;stroke-opacity:1;}.shape {fill:#F7F7F7;fill-opacity:1;}.shapeStroke-str {stroke:#AA9C89;stroke-opacity:1;}</style><g opacity="1" transform="rotate(0 456.9942 342.4785)">
<svg width="120.0003" height="120" x="456.9942" y="342.4785" version="1.1" preserveAspectRatio="none" viewBox="0 0 120.0003 120">
  <defs><rect x="0" y="0" width="120.0003" height="120" rx="150px" ry="150px" id="id-5kldYRpCP1766494999547"></rect></defs><use class="shape shapeStroke-str" style="stroke-width:0;" xlink:href="#id-5kldYRpCP1766494999547"></use>
</svg>
</g><g opacity="1" transform="rotate(0 482.3546 367.4785)">
<svg width="69.2794" height="70" x="482.3546" y="367.4785" version="1.1" preserveAspectRatio="none" viewBox="9.675520896911621 9.259101867675781 80.6442642211914 81.48310089111328">
  <g transform="matrix(1 0 0 1 0 0)" class="icon1"><path d="m16.367 51.07h-3.5391c-0.86719 0-1.6523 0.35547-2.2266 0.92578-0.57031 0.57031-0.92578 1.3594-0.92578 2.2266 0 0.86719 0.35547 1.6562 0.92578 2.2266 0.57031 0.57031 1.3594 0.92578 2.2266 0.92578h3.5391zm67.234 6.7695h3.5547c0.87109 0 1.6602-0.35547 2.2344-0.92969 0.57422-0.57422 0.92969-1.3672 0.92969-2.2344 0-0.87109-0.35547-1.6602-0.92969-2.2344-0.57422-0.57422-1.3672-0.92969-2.2344-0.92969h-3.5547v6.332zm-0.83984-7.5469h-65.555v27.516c0.003907 3.5625 1.3281 6.8008 3.4609 9.1484 2.1211 2.3359 5.043 3.7852 8.2539 3.7852h0.011719l43.094-0.046876c2.9961-0.27734 5.6836-1.8203 7.6211-4.1367 1.9297-2.3125 3.1133-5.3906 3.1133-8.7656zm-65.555-1.3438h65.555v-2.1562h-65.555zm10.641-8.5508c-0.15234 0.33594-0.55078 0.48437-0.88672 0.33203-0.33594-0.15234-0.48438-0.55078-0.33203-0.88672 0.91016-1.9922 0.28516-3.4688-0.25-4.7344-0.66797-1.5781-1.2227-2.8945 0.39062-4.4766 0.26562-0.25781 0.6875-0.25781 0.94922 0.007813 0.25781 0.26562 0.25781 0.6875-0.007812 0.94922-0.96484 0.94922-0.57031 1.8828-0.09375 3 0.64062 1.5117 1.3867 3.2812 0.23437 5.8086zm-3.8477-23.801 61.125 23.312c0.79688-2.9219 0.60547-5.8984-0.40234-8.4648-1.1523-2.9414-3.3672-5.3398-6.3711-6.4844l-39.344-15.004c-3.0039-1.1445-6.2578-0.83203-9.0742 0.59375-2.457 1.2461-4.582 3.3359-5.9336 6.0469zm37.449 1.0195-4.9414-1.8828 1.0625-2.7812c0.25781-0.67969 0.77344-1.1914 1.3906-1.4688 0.61328-0.27344 1.332-0.32031 2.0039-0.066406 0.011718 0.003906 0.023437 0.007812 0.035156 0.011719 0.67188 0.26172 1.1758 0.76953 1.4492 1.3828 0.27344 0.61328 0.32031 1.332 0.066406 2.0039-0.003906 0.011719-0.011719 0.023438-0.015625 0.039063l-1.0547 2.7617zm-38.812 2.3594 61.254 23.359 0.80078-2.1016 0.019532-0.046875-61.254-23.359-0.019531 0.046875zm20.965 21.977c-0.15234 0.33594-0.55078 0.48438-0.88672 0.33203-0.33594-0.15234-0.48438-0.55078-0.33203-0.88672 0.91016-1.9922 0.28516-3.4688-0.25-4.7344-0.66797-1.5781-1.2227-2.8945 0.39063-4.4766 0.26562-0.25781 0.6875-0.25781 0.94922 0.007812 0.25781 0.26563 0.25781 0.6875-0.007812 0.94922-0.96484 0.94531-0.57031 1.8828-0.09375 3 0.64062 1.5117 1.3867 3.2812 0.23438 5.8086zm-8.7266-1.2578c-0.15234 0.33594-0.55078 0.48438-0.88672 0.33203-0.33594-0.15234-0.48438-0.55078-0.33203-0.88672 0.91016-1.9922 0.28516-3.4688-0.25-4.7344-0.66797-1.5781-1.2227-2.8945 0.39062-4.4766 0.26562-0.25781 0.6875-0.25781 0.94922 0.007812 0.25781 0.26562 0.25781 0.6875-0.007813 0.94922-0.96484 0.94531-0.57031 1.8828-0.09375 3 0.64062 1.5117 1.3867 3.2812 0.23438 5.8086z" fill-rule="evenodd"></path></g>
</svg>
</g><g opacity="1" transform="rotate(0 600.9945 342.4785)">
<svg width="242.4849" height="120" x="600.9945" y="342.4785" version="1.1" preserveAspectRatio="none" viewBox="3.32 -31.48 160.12 79.24000000000001">
  <g transform="matrix(1 0 0 1 0 0)" class="companyName"><path id="id-D6z1nYkh13" d="M28.12 0L21.16 0L15.76-7.80L15.44-7.80L9.80-7.80L9.80 0L3.32 0L3.32-28L15.44-28Q19.16-28 21.90-26.76Q24.64-25.52 26.12-23.24Q27.60-20.96 27.60-17.84L27.60-17.84Q27.60-14.72 26.10-12.46Q24.60-10.20 21.84-9L21.84-9L28.12 0ZM21.04-17.84Q21.04-20.20 19.52-21.46Q18-22.72 15.08-22.72L15.08-22.72L9.80-22.72L9.80-12.96L15.08-12.96Q18-12.96 19.52-14.24Q21.04-15.52 21.04-17.84L21.04-17.84Z M32.28 0L32.28-21.52L38.52-21.52L38.52 0L32.28 0ZM35.40-24.52Q33.68-24.52 32.60-25.52Q31.52-26.52 31.52-28L31.52-28Q31.52-29.48 32.60-30.48Q33.68-31.48 35.40-31.48L35.40-31.48Q37.12-31.48 38.20-30.52Q39.28-29.56 39.28-28.12L39.28-28.12Q39.28-26.56 38.20-25.54Q37.12-24.52 35.40-24.52L35.40-24.52Z M57.40-21.84Q61.40-21.84 63.86-19.44Q66.32-17.04 66.32-12.32L66.32-12.32L66.32 0L60.08 0L60.08-11.36Q60.08-13.92 58.96-15.18Q57.84-16.44 55.72-16.44L55.72-16.44Q53.36-16.44 51.96-14.98Q50.56-13.52 50.56-10.64L50.56-10.64L50.56 0L44.32 0L44.32-21.52L50.28-21.52L50.28-19Q51.52-20.36 53.36-21.10Q55.20-21.84 57.40-21.84L57.40-21.84Z M87.80-21.52L94.04-21.52L94.04 0L88.08 0L88.08-2.48Q85.76 0.32 81.36 0.32L81.36 0.32Q78.32 0.32 75.86-1.04Q73.40-2.40 72.00-4.92Q70.60-7.44 70.60-10.76L70.60-10.76Q70.60-14.08 72.00-16.60Q73.40-19.12 75.86-20.48Q78.32-21.84 81.36-21.84L81.36-21.84Q85.48-21.84 87.80-19.24L87.80-19.24L87.80-21.52ZM82.44-4.80Q84.80-4.80 86.36-6.42Q87.92-8.04 87.92-10.76L87.92-10.76Q87.92-13.48 86.36-15.10Q84.80-16.72 82.44-16.72L82.44-16.72Q80.04-16.72 78.48-15.10Q76.92-13.48 76.92-10.76L76.92-10.76Q76.92-8.04 78.48-6.42Q80.04-4.80 82.44-4.80L82.44-4.80Z M102.20-30Q103.88-30 104.96-28.94Q106.04-27.88 106.04-26.16L106.04-26.16Q106.04-25.36 105.84-24.56Q105.64-23.76 105.00-22.16L105.00-22.16L102.68-16.40L98.72-16.40L100.44-22.72Q99.44-23.16 98.88-24.04Q98.32-24.92 98.32-26.16L98.32-26.16Q98.32-27.88 99.42-28.94Q100.52-30 102.20-30L102.20-30Z M117.52 0.32Q114.84 0.32 112.28-0.34Q109.72-1 108.20-2L108.20-2L110.28-6.48Q111.72-5.56 113.76-4.98Q115.80-4.40 117.76-4.40L117.76-4.40Q121.72-4.40 121.72-6.36L121.72-6.36Q121.72-7.28 120.64-7.68Q119.56-8.08 117.32-8.36L117.32-8.36Q114.68-8.76 112.96-9.28Q111.24-9.80 109.98-11.12Q108.72-12.44 108.72-14.88L108.72-14.88Q108.72-16.92 109.90-18.50Q111.08-20.08 113.34-20.96Q115.60-21.84 118.68-21.84L118.68-21.84Q120.96-21.84 123.22-21.34Q125.48-20.84 126.96-19.96L126.96-19.96L124.88-15.52Q122.04-17.12 118.68-17.12L118.68-17.12Q116.68-17.12 115.68-16.56Q114.68-16 114.68-15.12L114.68-15.12Q114.68-14.12 115.76-13.72Q116.84-13.32 119.20-12.96L119.20-12.96Q121.84-12.52 123.52-12.02Q125.20-11.52 126.44-10.20Q127.68-8.88 127.68-6.52L127.68-6.52Q127.68-4.52 126.48-2.96Q125.28-1.40 122.98-0.54Q120.68 0.32 117.52 0.32L117.52 0.32Z M28.12 40L21.16 40L15.76 32.20L15.44 32.20L9.80 32.20L9.80 40L3.32 40L3.32 12L15.44 12Q19.16 12 21.90 13.24Q24.64 14.48 26.12 16.76Q27.60 19.04 27.60 22.16L27.60 22.16Q27.60 25.28 26.10 27.54Q24.60 29.80 21.84 31L21.84 31L28.12 40ZM21.04 22.16Q21.04 19.80 19.52 18.54Q18 17.28 15.08 17.28L15.08 17.28L9.80 17.28L9.80 27.04L15.08 27.04Q18 27.04 19.52 25.76Q21.04 24.48 21.04 22.16L21.04 22.16Z M43.12 35.32Q44.80 35.32 46.10 34.82Q47.40 34.32 48.52 33.24L48.52 33.24L51.84 36.84Q48.80 40.32 42.96 40.32L42.96 40.32Q39.32 40.32 36.52 38.90Q33.72 37.48 32.20 34.96Q30.68 32.44 30.68 29.24L30.68 29.24Q30.68 26.08 32.18 23.54Q33.68 21 36.30 19.58Q38.92 18.16 42.20 18.16L42.20 18.16Q45.28 18.16 47.80 19.46Q50.32 20.76 51.82 23.22Q53.32 25.68 53.32 29.04L53.32 29.04L37.40 32.12Q38.08 33.72 39.54 34.52Q41 35.32 43.12 35.32L43.12 35.32ZM42.20 22.88Q39.84 22.88 38.36 24.40Q36.88 25.92 36.80 28.60L36.80 28.60L47.28 26.56Q46.84 24.88 45.48 23.88Q44.12 22.88 42.20 22.88L42.20 22.88Z M67.92 40.32Q64.48 40.32 61.74 38.90Q59 37.48 57.46 34.96Q55.92 32.44 55.92 29.24L55.92 29.24Q55.92 26.04 57.46 23.52Q59 21 61.74 19.58Q64.48 18.16 67.92 18.16L67.92 18.16Q71.32 18.16 73.86 19.58Q76.40 21 77.56 23.64L77.56 23.64L72.72 26.24Q71.04 23.28 67.88 23.28L67.88 23.28Q65.44 23.28 63.84 24.88Q62.24 26.48 62.24 29.24L62.24 29.24Q62.24 32 63.84 33.60Q65.44 35.20 67.88 35.20L67.88 35.20Q71.08 35.20 72.72 32.24L72.72 32.24L77.56 34.88Q76.40 37.44 73.86 38.88Q71.32 40.32 67.92 40.32L67.92 40.32Z M81.16 40L81.16 18.48L87.40 18.48L87.40 40L81.16 40ZM84.28 15.48Q82.56 15.48 81.48 14.48Q80.40 13.48 80.40 12L80.40 12Q80.40 10.52 81.48 9.52Q82.56 8.52 84.28 8.52L84.28 8.52Q86 8.52 87.08 9.48Q88.16 10.44 88.16 11.88L88.16 11.88Q88.16 13.44 87.08 14.46Q86 15.48 84.28 15.48L84.28 15.48Z M105.92 18.16Q108.92 18.16 111.38 19.54Q113.84 20.92 115.24 23.42Q116.64 25.92 116.64 29.24L116.64 29.24Q116.64 32.56 115.24 35.06Q113.84 37.56 111.38 38.94Q108.92 40.32 105.92 40.32L105.92 40.32Q101.80 40.32 99.44 37.72L99.44 37.72L99.44 47.76L93.20 47.76L93.20 18.48L99.16 18.48L99.16 20.96Q101.48 18.16 105.92 18.16L105.92 18.16ZM104.84 35.20Q107.24 35.20 108.78 33.58Q110.32 31.96 110.32 29.24L110.32 29.24Q110.32 26.52 108.78 24.90Q107.24 23.28 104.84 23.28L104.84 23.28Q102.44 23.28 100.90 24.90Q99.36 26.52 99.36 29.24L99.36 29.24Q99.36 31.96 100.90 33.58Q102.44 35.20 104.84 35.20L104.84 35.20Z M131.64 35.32Q133.32 35.32 134.62 34.82Q135.92 34.32 137.04 33.24L137.04 33.24L140.36 36.84Q137.32 40.32 131.48 40.32L131.48 40.32Q127.84 40.32 125.04 38.90Q122.24 37.48 120.72 34.96Q119.20 32.44 119.20 29.24L119.20 29.24Q119.20 26.08 120.70 23.54Q122.20 21 124.82 19.58Q127.44 18.16 130.72 18.16L130.72 18.16Q133.80 18.16 136.32 19.46Q138.84 20.76 140.34 23.22Q141.84 25.68 141.84 29.04L141.84 29.04L125.92 32.12Q126.60 33.72 128.06 34.52Q129.52 35.32 131.64 35.32L131.64 35.32ZM130.72 22.88Q128.36 22.88 126.88 24.40Q125.40 25.92 125.32 28.60L125.32 28.60L135.80 26.56Q135.36 24.88 134.00 23.88Q132.64 22.88 130.72 22.88L130.72 22.88Z M153.28 40.32Q150.60 40.32 148.04 39.66Q145.48 39 143.96 38L143.96 38L146.04 33.52Q147.48 34.44 149.52 35.02Q151.56 35.60 153.52 35.60L153.52 35.60Q157.48 35.60 157.48 33.64L157.48 33.64Q157.48 32.72 156.40 32.32Q155.32 31.92 153.08 31.64L153.08 31.64Q150.44 31.24 148.72 30.72Q147.00 30.20 145.74 28.88Q144.48 27.56 144.48 25.12L144.48 25.12Q144.48 23.08 145.66 21.50Q146.84 19.92 149.10 19.04Q151.36 18.16 154.44 18.16L154.44 18.16Q156.72 18.16 158.98 18.66Q161.24 19.16 162.72 20.04L162.72 20.04L160.64 24.48Q157.80 22.88 154.44 22.88L154.44 22.88Q152.44 22.88 151.44 23.44Q150.44 24 150.44 24.88L150.44 24.88Q150.44 25.88 151.52 26.28Q152.60 26.68 154.96 27.04L154.96 27.04Q157.60 27.48 159.28 27.98Q160.96 28.48 162.20 29.80Q163.44 31.12 163.44 33.48L163.44 33.48Q163.44 35.48 162.24 37.04Q161.04 38.60 158.74 39.46Q156.44 40.32 153.28 40.32L153.28 40.32Z"/></g>
</svg>
</g></svg></svg>