<svg xmlns="http://www.w3.org/2000/svg" width="120" height="26" viewBox="0 0 120 26">
    <g fill="#FFF" fill-rule="evenodd">
        <path d="M64.286.703H120v9.838H64.286zM64.286 16.162H120V26H64.286zM17.1 25.966h-.089a3.17 3.17 0 0 1-2.804-1.672L4.983 6.967v18.999H0V.185h5.073a3.17 3.17 0 0 1 2.805 1.67L17.1 19.182V.185h4.981v25.781h-4.981zM33.717.285h-4.183l-1.384 2.707h4.981V23.59h-1.78V4.749h-4.1l-1.219 2.39h2.711V26h6.994V2.256A1.964 1.964 0 0 0 35.14.86a2.03 2.03 0 0 0-1.425-.574zm24.05 23.324H42.076L50.39 11.48l.014-.018c.44-.575.747-1.237.898-1.942l.006-.031a4.23 4.23 0 0 0-1.25-3.833 4.643 4.643 0 0 0-6.36 0 4.23 4.23 0 0 0-1.318 3.079h2.71a1.744 1.744 0 0 1 1.182-1.653 1.79 1.79 0 0 1 1.975.56 1.72 1.72 0 0 1 .108 2.018C48.347 9.674 37.191 26 37.191 26H58.9l-1.134-2.391zM37.924 8.735h2.746a5.959 5.959 0 0 1 1.819-4.297c2.431-2.367 6.346-2.367 8.778 0a5.949 5.949 0 0 1 .81 7.594l-6.658 9.845h11.524l-1.197-2.523H50.29s2.92-4.117 3.94-5.78c1.021-1.664 1.474-3.182 1.511-4.851A7.773 7.773 0 0 0 55.566 7c-.92-4.4-5.071-7.404-9.615-6.957-4.543.446-8.009 4.199-8.026 8.69z"/>
    </g>
</svg>
