<svg width="32" height="32" viewBox="0 0 32 32" fill="none" xmlns="http://www.w3.org/2000/svg">
<g clip-path="url(#clip0_11371_863)">
<path d="M27.2 0.53334H4.79999C2.44358 0.53334 0.533325 2.44359 0.533325 4.80001V27.2C0.533325 29.5564 2.44358 31.4667 4.79999 31.4667H27.2C29.5564 31.4667 31.4667 29.5564 31.4667 27.2V4.80001C31.4667 2.44359 29.5564 0.53334 27.2 0.53334Z" fill="#066BED" stroke="#066BED" stroke-width="1.06667"/>
<g clip-path="url(#clip1_11371_863)">
<path d="M26.0103 25.159H5.98959C4.89251 25.159 4 24.2587 4 23.152V7.7813C4 6.67465 4.89251 5.77435 5.98959 5.77435H26.0103C27.1074 5.77435 27.9999 6.67465 27.9999 7.7813V23.1519C27.9999 24.2586 27.1074 25.1589 26.0103 25.1589V25.159ZM5.98959 6.88966C5.50214 6.88966 5.10556 7.28971 5.10556 7.78141V23.152C5.10556 23.6437 5.50214 24.0438 5.98959 24.0438H26.0103C26.4977 24.0438 26.8943 23.6437 26.8943 23.152V7.7813C26.8943 7.28959 26.4977 6.88955 26.0103 6.88955H5.98959V6.88966Z" fill="white"/>
<path d="M18.2999 22.9537C17.9993 22.9537 17.7529 22.7107 17.7473 22.4062C17.7418 22.0983 17.9847 21.8442 18.2899 21.8385C19.1519 21.8226 20.0295 21.7972 20.8984 21.7628L24.499 21.6203L24.6117 19.4905C24.7531 16.8205 24.7531 14.1129 24.6117 11.4429L24.499 9.31319L20.8984 9.17068C17.6481 9.04197 14.3519 9.04197 11.1015 9.17068L7.50089 9.31319L7.41748 10.8895C7.4012 11.1971 7.14092 11.433 6.83599 11.4167C6.53107 11.4003 6.29712 11.1376 6.31339 10.8301L6.4237 8.74624C6.43896 8.45861 6.66872 8.23003 6.9541 8.21874L11.0582 8.05628C14.3374 7.92643 17.6628 7.92643 20.9419 8.05628L25.046 8.21874C25.3313 8.23003 25.5612 8.45861 25.5764 8.74624L25.716 11.3835C25.8594 14.093 25.8594 16.8406 25.716 19.5502L25.5764 22.1874C25.5612 22.4751 25.3314 22.7036 25.046 22.7149L20.9419 22.8774C20.0654 22.912 19.1799 22.9378 18.3102 22.9538C18.3068 22.9538 18.3033 22.9538 18.2999 22.9538V22.9537Z" fill="white"/>
<path d="M16.5317 22.9751C16.2264 22.9751 15.9789 22.7254 15.9789 22.4175C15.9789 17.2726 11.8294 13.0868 6.72886 13.0868C6.4236 13.0868 6.17609 12.8371 6.17609 12.5292C6.17609 12.2212 6.4236 11.9716 6.72886 11.9716C12.4389 11.9716 17.0845 16.6576 17.0845 22.4175C17.0845 22.7254 16.837 22.9751 16.5317 22.9751Z" fill="white"/>
<path d="M13.6488 22.975C13.3435 22.975 13.096 22.7253 13.096 22.4174C13.096 18.8759 10.2397 15.9947 6.72886 15.9947C6.4236 15.9947 6.17609 15.745 6.17609 15.4371C6.17609 15.1292 6.4236 14.8795 6.72886 14.8795C10.8493 14.8795 14.2016 18.261 14.2016 22.4174C14.2016 22.7253 13.9541 22.975 13.6488 22.975Z" fill="white"/>
<path d="M10.7643 22.8651C10.4658 22.8651 10.2199 22.6251 10.212 22.3222C10.188 21.4133 9.82004 20.5594 9.17571 19.9176C8.53082 19.2753 7.67854 18.9148 6.77586 18.9028C6.47059 18.8987 6.22636 18.6459 6.23043 18.3378C6.2345 18.0298 6.48495 17.7834 6.79055 17.7876C7.98053 17.8035 9.10349 18.2781 9.95272 19.124C10.8012 19.9691 11.2858 21.0945 11.3173 22.2925C11.3255 22.6004 11.0846 22.8566 10.7793 22.8647C10.7744 22.8648 10.7694 22.865 10.7644 22.865L10.7643 22.8651Z" fill="white"/>
<path d="M7.86096 22.7503C7.60181 22.7503 7.37057 22.5656 7.31904 22.2995C7.2718 22.0554 7.07672 21.8626 6.83384 21.8199C6.5331 21.767 6.33181 21.4781 6.38425 21.1747C6.43669 20.8714 6.72309 20.6683 7.02383 20.7212C7.36481 20.7813 7.67618 20.9427 7.92426 21.1881C8.17188 21.4332 8.33791 21.7435 8.40414 22.0856C8.46268 22.3879 8.26716 22.6808 7.96754 22.7398C7.93171 22.7469 7.89611 22.7503 7.86096 22.7503Z" fill="white"/>
</g>
</g>
<defs>
<clipPath id="clip0_11371_863">
<rect width="32" height="32" fill="white"/>
</clipPath>
<clipPath id="clip1_11371_863">
<rect width="24" height="19.3846" fill="white" transform="translate(4 5.77435)"/>
</clipPath>
</defs>
</svg>