<svg width="30" height="30" viewBox="0 0 30 30" fill="none" xmlns="http://www.w3.org/2000/svg">
<rect width="30" height="30" rx="4" fill="#066BED"/>
<path fill-rule="evenodd" clip-rule="evenodd" d="M25.9757 18.2156L24.3521 17.5824C24.0158 17.4512 23.6297 17.6009 23.4899 17.9161C23.3501 18.2317 23.5093 18.5939 23.8456 18.7251L25.4693 19.3584C25.5519 19.3905 25.6376 19.4062 25.7221 19.4062C25.9806 19.4062 26.2259 19.2626 26.3314 19.0246C26.4712 18.709 26.3121 18.3468 25.9757 18.2156Z" fill="white"/>
<path fill-rule="evenodd" clip-rule="evenodd" d="M27.0709 14.2153C27.0239 13.877 26.6911 13.6377 26.3314 13.6823L24.5877 13.8956C24.2268 13.9401 23.9722 14.2503 24.0193 14.5895C24.0628 14.9013 24.3459 15.1282 24.6726 15.1282L24.7588 15.1229L26.5024 14.9092C26.8634 14.8654 27.118 14.5548 27.0709 14.2153Z" fill="white"/>
<path fill-rule="evenodd" clip-rule="evenodd" d="M25.0256 10.5726C25.3149 10.3651 25.3703 9.97645 25.1487 9.705C24.9276 9.43396 24.5139 9.38198 24.2246 9.5899L22.8278 10.592C22.5385 10.7995 22.4831 11.1881 22.7047 11.4591C22.8344 11.6188 23.0305 11.7025 23.2288 11.7025C23.3686 11.7025 23.5093 11.6604 23.6288 11.575L25.0256 10.5726Z" fill="white"/>
<path fill-rule="evenodd" clip-rule="evenodd" d="M15.6153 8.33577C15.6583 8.64724 15.9419 8.87413 16.2681 8.87413L16.3543 8.8696C16.7157 8.82504 16.9703 8.51481 16.9232 8.17571L16.6959 6.53958C16.6489 6.20089 16.3191 5.95914 15.9569 6.00576C15.5959 6.05031 15.3413 6.36013 15.3879 6.69965L15.6153 8.33577Z" fill="white"/>
<path fill-rule="evenodd" clip-rule="evenodd" d="M12.0945 9.98676C12.2246 10.146 12.4202 10.2293 12.619 10.2293C12.7588 10.2293 12.8995 10.1885 13.019 10.1023C13.3083 9.89476 13.3633 9.50615 13.1422 9.23511L12.0738 7.92407C11.8526 7.65303 11.4394 7.60187 11.1496 7.80897C10.8603 8.01648 10.8049 8.40509 11.0265 8.67612L12.0945 9.98676Z" fill="white"/>
<path fill-rule="evenodd" clip-rule="evenodd" d="M19.8988 9.36671C19.9815 9.39888 20.0672 9.41415 20.1516 9.41415C20.4101 9.41415 20.6555 9.27058 20.761 9.03296L21.4363 7.50946C21.5766 7.19428 21.4174 6.83166 21.0811 6.70047C20.7447 6.56887 20.3587 6.71821 20.2189 7.0338L19.5431 8.55772C19.4033 8.87249 19.5625 9.23511 19.8988 9.36671Z" fill="white"/>
<path fill-rule="evenodd" clip-rule="evenodd" d="M17.0072 14.615C16.7667 14.615 16.5262 14.6328 16.2879 14.6674C15.9516 13.9104 15.4288 13.2594 14.7803 12.7508C15.2978 12.3304 15.9432 12.0396 16.6709 11.9505C16.8282 11.9311 16.9874 11.9216 17.1448 11.9216C18.9575 11.9216 20.5011 13.1967 20.7359 14.8869C20.7992 15.3456 20.7588 15.7937 20.6361 16.2136C19.7687 15.2376 18.4642 14.615 17.0072 14.615ZM17.8997 21.7057L17.8548 21.7202C17.6394 21.7957 17.4187 21.8344 17.198 21.8344H6.09407C5.89491 21.8344 5.69574 21.8039 5.47987 21.7375C4.46647 21.452 3.75862 20.5585 3.75862 19.5655C3.75862 18.3143 4.84325 17.2965 6.17672 17.2965C6.34159 17.2965 6.50822 17.3122 6.67134 17.344L7.70628 17.5441L7.72783 16.5527C7.7674 14.7206 9.38709 13.231 11.3383 13.231C13.0213 13.231 14.4655 14.3056 14.8516 15.8448L15.0771 16.7446L16.0043 16.4323C16.3332 16.3213 16.6709 16.2652 17.0072 16.2652C18.6436 16.2652 19.9749 17.5144 19.9749 19.0498C19.9749 20.2718 19.1408 21.339 17.8997 21.7057ZM22.4796 14.674C22.1318 12.1641 19.8381 10.2714 17.1448 10.2714C16.9118 10.2714 16.6761 10.2859 16.444 10.3139C15.1492 10.4723 14.0272 11.0577 13.2024 11.8935C12.6194 11.6918 11.9912 11.5808 11.3383 11.5808C8.75398 11.5808 6.5601 13.3386 6.07033 15.6472C3.81622 15.7004 2 17.4376 2 19.5655C2 21.2808 3.22268 22.8241 4.95141 23.3113C5.32247 23.4264 5.70717 23.4846 6.09407 23.4846H17.198C17.6227 23.4846 18.0435 23.4132 18.4497 23.273C20.415 22.683 21.7335 20.9883 21.7335 19.0498C21.7335 18.7268 21.6939 18.4124 21.624 18.1088C22.3165 17.1311 22.6537 15.9269 22.4796 14.674Z" fill="white"/>
</svg>