<svg width="168" height="42" viewBox="0 0 168 42" fill="none" xmlns="http://www.w3.org/2000/svg">
<g clip-path="url(#clip0_11216_220791)">
<path d="M144.22 11.6138H150.883C151.803 11.6138 152.548 10.8765 152.548 9.96584V3.37002C152.548 2.45939 151.803 1.72211 150.883 1.72211H144.22C143.3 1.72211 142.555 2.45939 142.555 3.37002V9.96584C142.555 10.8765 143.3 11.6138 144.22 11.6138ZM157.029 12.7959H161.854C162.521 12.7959 163.061 12.2612 163.061 11.6012V6.82458C163.061 6.16458 162.521 5.6299 161.854 5.6299H157.029C156.362 5.6299 155.822 6.16458 155.822 6.82458V11.6012C155.822 12.2612 156.362 12.7959 157.029 12.7959ZM135.491 24.63C136.158 24.63 136.698 24.0953 136.698 23.4353V18.6586C136.698 17.9986 136.158 17.4639 135.491 17.4639H130.666C129.999 17.4639 129.459 17.9986 129.459 18.6586V23.4353C129.459 24.0953 129.999 24.63 130.666 24.63H135.491ZM165.359 16.1022H158.696C157.776 16.1022 157.031 16.8395 157.031 17.7501V24.3459C157.031 25.2565 157.776 25.9938 158.696 25.9938H165.359C166.279 25.9938 167.024 25.2565 167.024 24.3459V17.7501C167.024 16.8395 166.279 16.1022 165.359 16.1022ZM150.885 30.4822H144.222C143.302 30.4822 142.557 31.2195 142.557 32.1301V38.726C142.557 39.6366 143.302 40.3739 144.222 40.3739H150.885C151.805 40.3739 152.55 39.6366 152.55 38.726V32.1301C152.55 31.2195 151.805 30.4822 150.885 30.4822ZM161.854 29.2876H157.029C156.362 29.2876 155.822 29.8222 155.822 30.4822V35.2589C155.822 35.9189 156.362 36.4536 157.029 36.4536H161.854C162.521 36.4536 163.061 35.9189 163.061 35.2589V30.4822C163.061 29.8222 162.521 29.2876 161.854 29.2876ZM151.719 14.8615H146.262C142.484 14.0136 140.167 11.7203 139.312 7.97958V2.58053C139.312 1.45059 138.386 0.533691 137.245 0.533691H128.974C127.832 0.533691 126.906 1.45059 126.906 2.58053V10.7679C126.906 11.8978 127.832 12.8147 128.974 12.8147H134.479C138.222 13.6648 140.523 15.9434 141.38 19.6507V22.345C140.519 26.0648 138.207 28.3477 134.439 29.1894H128.974C127.832 29.1894 126.906 30.1063 126.906 31.2362V39.4236C126.906 40.5535 127.832 41.4704 128.974 41.4704H137.245C138.386 41.4704 139.312 40.5535 139.312 39.4236V34.0141C140.165 30.2859 142.471 27.9947 146.229 27.1426H151.719C152.86 27.1426 153.786 26.2257 153.786 25.0957V16.9084C153.786 15.7784 152.86 14.8615 151.719 14.8615Z" fill="white"/>
<path d="M0.701172 10.0259V5.57715H2.18442V8.7769L1.45018 10.0238H0.703282L0.701172 10.0259Z" fill="white"/>
<path d="M7.77651 5.4502C8.55506 5.4502 9.16693 5.68621 9.61423 6.16032C10.0615 6.63443 10.2852 7.25683 10.2852 8.02544V12.4846H6.81862V11.2127H8.80192V8.18626C8.80192 7.73094 8.6922 7.38007 8.47489 7.12943C8.25757 6.8788 7.92631 6.75349 7.48324 6.75349C6.96209 6.75349 6.56122 6.93519 6.2806 7.29652C5.99999 7.65785 5.81854 8.19045 5.73203 8.89013L5.30161 12.4825H3.81836L4.35638 7.93146L3.85423 5.57551H5.33748L5.54636 6.63861H5.59278C5.71726 6.46943 5.86917 6.2919 6.04851 6.10811C6.22785 5.92431 6.45572 5.76766 6.73212 5.64026C7.00851 5.51285 7.35664 5.4502 7.77651 5.4502Z" fill="white"/>
<path d="M12.4434 12.4863V5.57715H13.9245V12.4863H12.4434Z" fill="white"/>
<path d="M15.8956 12.4863V10.5919C15.8956 9.92145 16.0095 9.33664 16.2395 8.83538C16.4674 8.33411 16.8092 7.96443 17.2607 7.72632L15.6973 5.57715H17.4126L19.9213 9.22803C20.1301 9.06721 20.2842 8.8312 20.377 8.52417C20.4698 8.21715 20.5163 7.84329 20.5163 7.40259V5.57715H21.9995V7.33367C21.9995 8.00411 21.8835 8.5931 21.6493 9.10063C21.4151 9.60816 21.0733 9.97576 20.6218 10.1992L22.3012 12.4863H20.5753L17.9612 8.7205C17.573 9.05886 17.3788 9.66038 17.3788 10.523V12.4863H15.8956Z" fill="white"/>
<path d="M24.7686 5.57745H29.0854V6.53612L26.8552 12.4866H25.2918L27.4861 6.84941H23.2832V3.70605H24.7665V5.57745H24.7686Z" fill="white"/>
<path d="M35.354 12.4864V8.11911C35.354 7.64082 35.2591 7.31083 35.0692 7.12494C34.8793 6.94114 34.5923 6.84716 34.2126 6.84716H30.7228V5.5752H34.2822C35.1388 5.5752 35.7781 5.76317 36.2022 6.14121C36.6263 6.51925 36.8394 7.10823 36.8394 7.90817V12.4822H35.3561L35.354 12.4864ZM30.7207 12.4864V8.41988H32.2018V12.4864H30.7207Z" fill="white"/>
<path d="M43.0319 5.57745H47.3509V6.53612L45.1207 12.4866H43.5573L45.7516 6.84941H41.5508V3.70605H43.0319V5.57745Z" fill="white"/>
<path d="M52.2768 12.6265C51.1712 12.6265 50.3272 12.3257 49.7428 11.7263C49.1605 11.1248 48.8672 10.187 48.8672 8.90665V5.5795H50.3504V8.90665C50.3504 9.7233 50.5108 10.3457 50.8294 10.7718C51.148 11.1999 51.6354 11.413 52.2873 11.413C52.9794 11.413 53.4667 11.1979 53.7453 10.7655C54.0259 10.3353 54.1651 9.71494 54.1651 8.90456C54.1651 8.22785 54.0913 7.69735 53.9436 7.31513C53.7959 6.93292 53.5153 6.74285 53.1038 6.74285C52.8633 6.74285 52.6249 6.7721 52.3907 6.83058C52.1586 6.88906 51.9329 6.96634 51.7134 7.06659V5.78418C51.8928 5.72361 52.1227 5.6526 52.4076 5.57532C52.6924 5.49804 53.0047 5.46045 53.3465 5.46045C53.8676 5.46045 54.2854 5.55653 54.6019 5.74868C54.9162 5.94083 55.1547 6.19982 55.315 6.52355C55.4733 6.84729 55.5787 7.20861 55.6294 7.60963C55.68 8.01064 55.7053 8.41792 55.7053 8.83355C55.7053 9.72747 55.5703 10.4522 55.296 11.012C55.0238 11.5696 54.6314 11.979 54.1166 12.2359C53.6018 12.4949 52.9878 12.6223 52.2726 12.6223L52.2768 12.6265Z" fill="white"/>
<path d="M57.3984 10.0259V5.57715H58.8817V8.7769L58.1475 10.0238H57.4005L57.3984 10.0259Z" fill="white"/>
<path d="M60.1074 12.6036V11.2293C60.4176 11.1436 60.7003 11.0246 60.9535 10.8721C61.2067 10.7176 61.4303 10.5379 61.6244 10.3291C61.8502 10.091 62.0274 9.82155 62.1561 9.52079C62.2848 9.22003 62.3481 8.91718 62.3481 8.60807V7.48649C62.3481 7.0625 62.1498 6.85155 61.7531 6.85155H60.5526V5.57959H62.1983C62.7195 5.57959 63.1203 5.72579 63.401 6.0182C63.6816 6.3106 63.8208 6.73877 63.8208 7.3006V10.2581L64.0888 12.4887H62.7933L62.4663 10.8471H62.4199C62.116 11.294 61.7574 11.6658 61.3459 11.9624C60.9345 12.259 60.521 12.472 60.1095 12.6036H60.1074Z" fill="white"/>
<path d="M65.5449 10.0259V5.57715H67.0282V8.7769L66.2939 10.0238H65.547L65.5449 10.0259Z" fill="white"/>
<path d="M71.8131 12.4863V6.84911H68.2305V5.57715H74.3576V6.84911H73.2963V12.4863H71.8131Z" fill="white"/>
<path d="M80.5083 12.4864V8.11911C80.5083 7.64082 80.4134 7.31083 80.2235 7.12494C80.0336 6.94114 79.7467 6.84716 79.3648 6.84716H75.875V5.5752H79.4344C80.291 5.5752 80.9303 5.76317 81.3544 6.14121C81.7785 6.51925 81.9895 7.10823 81.9895 7.90817V12.4822H80.5083V12.4864ZM75.875 12.4864V8.41988H77.3583V12.4864H75.875Z" fill="white"/>
<path d="M90.9403 15.2603V9.23048C90.9403 8.62269 90.8454 8.1444 90.6555 7.79769C90.4656 7.45098 90.185 7.20662 89.8158 7.06459C89.4465 6.92256 88.9971 6.85155 88.4675 6.85155H86.6699V5.57959H88.6068C89.8137 5.57959 90.7589 5.86991 91.4425 6.45263C92.1282 7.03535 92.47 7.9606 92.47 9.23048V15.2603H90.9403Z" fill="white"/>
<path d="M97.163 12.4864V8.11911C97.163 7.64082 97.068 7.31083 96.8781 7.12494C96.6882 6.94114 96.4013 6.84716 96.0215 6.84716H92.998V5.5752H96.0911C96.9478 5.5752 97.5871 5.76317 98.0111 6.14121C98.4352 6.51925 98.6483 7.10823 98.6483 7.90817V12.4822H97.1651L97.163 12.4864Z" fill="white"/>
<path d="M99.8341 12.4863V11.2143H101.691L100.313 5.57715H101.796L103.126 11.112C103.693 10.9658 104.126 10.6608 104.421 10.1992C104.716 9.73765 104.904 9.07557 104.982 8.21297L105.25 5.57924H106.731L106.474 8.24848C106.442 8.59519 106.385 8.96278 106.299 9.35126C106.212 9.73974 106.079 10.1199 105.902 10.4896C105.723 10.8592 105.476 11.1934 105.162 11.4942C104.847 11.7949 104.444 12.0351 103.953 12.2168C103.461 12.3985 102.864 12.4883 102.155 12.4883H99.832L99.8341 12.4863Z" fill="white"/>
<path d="M111.857 5.4502C112.635 5.4502 113.247 5.68621 113.694 6.16032C114.142 6.63443 114.365 7.25683 114.365 8.02544V12.4846H110.899V11.2127H112.882V8.18626C112.882 7.73094 112.772 7.38007 112.555 7.12943C112.338 6.8788 112.006 6.75349 111.563 6.75349C111.042 6.75349 110.641 6.93519 110.361 7.29652C110.08 7.65785 109.899 8.19045 109.812 8.89013L109.382 12.4825H107.898L108.436 7.93146L107.934 5.57551H109.418L109.626 6.63861H109.673C109.797 6.46943 109.949 6.2919 110.129 6.10811C110.308 5.92431 110.536 5.76766 110.812 5.64026C111.089 5.51285 111.437 5.4502 111.857 5.4502Z" fill="white"/>
<path d="M3.02396 36.449H0.572266V35.8433L1.25376 35.5927V31.121L0.572266 30.8703V30.2646H3.02396V30.8703L2.34035 31.121V35.5927L3.02396 35.8433V36.449Z" fill="white"/>
<path d="M6.82328 35.098C6.82328 35.5659 6.66926 35.923 6.3591 36.1674C6.04895 36.4117 5.61009 36.535 5.03831 36.535C4.74715 36.535 4.48974 36.512 4.2682 36.466C4.04667 36.4201 3.83568 36.3512 3.63735 36.2572V35.3215C3.83568 35.4259 4.06143 35.5157 4.3104 35.5909C4.56148 35.6661 4.80412 35.7037 5.0362 35.7037C5.29361 35.7037 5.48139 35.6578 5.60165 35.5659C5.72192 35.474 5.781 35.3486 5.781 35.1941C5.781 35.0959 5.75779 35.0103 5.71137 34.9351C5.66495 34.8599 5.57212 34.7805 5.43497 34.697C5.29783 34.6134 5.09739 34.5132 4.83576 34.3983C4.44543 34.2187 4.14583 34.0265 3.93906 33.8219C3.73229 33.6172 3.62891 33.3269 3.62891 32.9509C3.62891 32.5416 3.78082 32.2241 4.08886 31.9985C4.3948 31.7729 4.80201 31.6602 5.31049 31.6602C5.57844 31.6602 5.83163 31.6915 6.06794 31.7521C6.30425 31.8126 6.53844 31.9003 6.77264 32.0152L6.44772 32.7943C6.25994 32.7024 6.07216 32.6272 5.88227 32.5687C5.69238 32.5123 5.50038 32.4831 5.30838 32.4831C4.87585 32.4831 4.66064 32.6251 4.66064 32.9071C4.66064 33.0052 4.68596 33.0888 4.73871 33.1577C4.79146 33.2266 4.8864 33.2997 5.02354 33.3749C5.16069 33.4501 5.3548 33.5441 5.60587 33.661C5.85695 33.7759 6.07216 33.895 6.25361 34.0161C6.43506 34.1372 6.57431 34.2855 6.67348 34.4589C6.77264 34.6322 6.82117 34.8453 6.82117 35.1001L6.82328 35.098Z" fill="white"/>
<path d="M10.009 31.6577C10.0786 31.6577 10.1546 31.6619 10.2369 31.6702C10.3192 31.6786 10.3909 31.6911 10.4563 31.7099L10.3592 32.7333C10.3002 32.7166 10.2348 32.702 10.1588 32.6937C10.0828 32.6853 10.0111 32.6811 9.93937 32.6811C9.62499 32.6811 9.35493 32.796 9.12917 33.0237C8.90552 33.2513 8.79159 33.5855 8.79159 34.0241V36.4511H7.73242V31.7454H8.54684L8.69453 32.5516H8.74728C8.87598 32.3094 9.04688 32.0984 9.25998 31.923C9.47308 31.7475 9.72205 31.6598 10.009 31.6598V31.6577Z" fill="white"/>
<path d="M12.9339 31.6577C14.0543 31.6577 14.6155 32.2028 14.6155 33.2952V36.449H13.8539L13.6619 35.8078H13.6365C13.4509 36.0626 13.2525 36.2464 13.0458 36.3633C12.839 36.4782 12.5626 36.5367 12.2187 36.5367C11.8094 36.5367 11.4844 36.4093 11.2418 36.1503C10.9992 35.8934 10.8789 35.5404 10.8789 35.0893C10.8789 34.1306 11.533 33.6273 12.839 33.5813L13.5648 33.5563V33.3223C13.5648 33.0216 13.5015 32.8044 13.3728 32.6728C13.2441 32.5391 13.0626 32.4744 12.8306 32.4744C12.6322 32.4744 12.4339 32.5057 12.2356 32.5683C12.0372 32.6331 11.8389 32.7125 11.6406 32.8106L11.3072 32.0566C11.5288 31.9355 11.7798 31.8394 12.0604 31.7663C12.3411 31.6932 12.6322 31.6577 12.936 31.6577H12.9339ZM13.5648 34.2225L13.0669 34.2392C12.6575 34.2559 12.3706 34.3374 12.2039 34.4815C12.0372 34.6256 11.955 34.8261 11.955 35.0789C11.955 35.3044 12.014 35.4694 12.1301 35.5718C12.2461 35.6762 12.398 35.7284 12.5858 35.7284C12.8664 35.7284 13.0985 35.6344 13.2863 35.4464C13.472 35.2585 13.5669 34.989 13.5669 34.6361V34.2204L13.5648 34.2225Z" fill="white"/>
<path d="M17.5541 31.666C18.1491 31.666 18.6132 31.8561 18.9445 32.2383C19.2779 32.6205 19.4445 33.1364 19.4445 33.7901V34.3541H16.6342C16.6405 34.7927 16.7439 35.1289 16.9443 35.3629C17.1448 35.5968 17.4338 35.7137 17.8073 35.7137C18.0689 35.7137 18.3115 35.6845 18.5331 35.6281C18.7546 35.5717 18.9825 35.4819 19.2167 35.3587V36.2171C18.9951 36.3278 18.7673 36.4072 18.5331 36.4594C18.2989 36.5116 18.0309 36.5366 17.7271 36.5366C17.0498 36.5366 16.5202 36.3299 16.1383 35.9122C15.7565 35.4965 15.5645 34.9034 15.5645 34.1368C15.5645 33.3703 15.7417 32.7208 16.0983 32.2989C16.4548 31.877 16.938 31.666 17.552 31.666H17.5541ZM17.5625 32.4534C17.3009 32.4534 17.0878 32.5474 16.9274 32.7354C16.7671 32.9234 16.6743 33.2137 16.651 33.6063H18.436C18.4297 33.2722 18.3558 32.9965 18.2124 32.7792C18.0689 32.562 17.8516 32.4534 17.5604 32.4534H17.5625Z" fill="white"/>
<path d="M21.4576 36.4491H20.3984V29.8638H21.4576V36.4491Z" fill="white"/>
<path d="M29.6082 36.4492H28.279L25.6965 31.6913H25.6627C25.6733 31.9628 25.688 32.2343 25.7028 32.5059C25.7176 32.7774 25.7281 33.0405 25.7324 33.2954V36.4492H24.7344V30.2627H26.0552L28.6377 34.9683H28.663C28.6503 34.7198 28.6398 34.4587 28.6271 34.1851C28.6145 33.9115 28.606 33.6525 28.6018 33.4102V30.2648H29.6082V36.4512V36.4492Z" fill="white"/>
<path d="M32.68 31.6577C33.8004 31.6577 34.3616 32.2028 34.3616 33.2952V36.449H33.5999L33.4079 35.8078H33.3826C33.197 36.0626 32.9986 36.2464 32.7919 36.3633C32.5851 36.4782 32.3087 36.5367 31.9648 36.5367C31.5555 36.5367 31.2305 36.4093 30.9879 36.1503C30.7453 35.8934 30.625 35.5404 30.625 35.0893C30.625 34.1306 31.2791 33.6273 32.5851 33.5813L33.3109 33.5563V33.3223C33.3109 33.0216 33.2476 32.8044 33.1189 32.6728C32.9902 32.5391 32.8087 32.4744 32.5766 32.4744C32.3783 32.4744 32.18 32.5057 31.9817 32.5683C31.7833 32.6331 31.585 32.7125 31.3867 32.8106L31.0533 32.0566C31.2748 31.9355 31.5259 31.8394 31.8065 31.7663C32.0872 31.6932 32.3783 31.6577 32.6821 31.6577H32.68ZM33.3109 34.2225L32.813 34.2392C32.4036 34.2559 32.1167 34.3374 31.95 34.4815C31.7833 34.6256 31.701 34.8261 31.701 35.0789C31.701 35.3044 31.7601 35.4694 31.8762 35.5718C31.9922 35.6762 32.1441 35.7284 32.3319 35.7284C32.6125 35.7284 32.8446 35.6344 33.0324 35.4464C33.2181 35.2585 33.313 34.989 33.313 34.6361V34.2204L33.3109 34.2225Z" fill="white"/>
<path d="M37.251 35.6701C37.367 35.6701 37.481 35.6596 37.5928 35.6346C37.7025 35.6116 37.8122 35.5824 37.9177 35.5489V36.3468C37.8017 36.4053 37.6603 36.4512 37.4936 36.4846C37.327 36.5181 37.1497 36.5369 36.9641 36.5369C36.5737 36.5369 36.2572 36.4282 36.0146 36.2069C35.772 35.9855 35.6517 35.6053 35.6517 35.0623V32.5664H35.082V32.0735L35.7213 31.7351L36.0273 30.7222H36.7109V31.7456H37.8671V32.5685H36.7109V35.0393C36.7109 35.2524 36.7594 35.4111 36.8543 35.5155C36.9514 35.62 37.0822 35.6722 37.2531 35.6722L37.251 35.6701Z" fill="white"/>
<path d="M39.2467 29.9346C39.4155 29.9346 39.5569 29.9805 39.6666 30.0724C39.7763 30.1643 39.8333 30.3126 39.8333 30.5152C39.8333 30.7178 39.7784 30.864 39.6666 30.958C39.5548 31.0499 39.4155 31.0958 39.2467 31.0958C39.0779 31.0958 38.9366 31.0499 38.8268 30.958C38.7171 30.8661 38.6602 30.7178 38.6602 30.5152C38.6602 30.3126 38.7129 30.1581 38.8226 30.0682C38.9302 29.9784 39.0716 29.9346 39.2467 29.9346ZM39.7721 31.7454V36.451H38.7129V31.7454H39.7721Z" fill="white"/>
<path d="M44.8812 34.0934C44.8812 34.839 44.7018 35.4322 44.3431 35.875C43.9845 36.3178 43.4696 36.5371 42.7987 36.5371C42.3852 36.5371 42.0223 36.4368 41.7121 36.2384C41.402 36.04 41.1657 35.7559 40.999 35.3904C40.8323 35.0228 40.75 34.5926 40.75 34.0955C40.75 33.3331 40.9272 32.7379 41.2838 32.3055C41.6404 31.8753 42.1531 31.6602 42.824 31.6602C43.4359 31.6602 43.9317 31.869 44.3115 32.2888C44.6913 32.7086 44.8812 33.3102 44.8812 34.0955V34.0934ZM41.826 34.0934C41.826 34.603 41.9041 34.9915 42.0624 35.263C42.2206 35.5345 42.4717 35.6703 42.8156 35.6703C43.1595 35.6703 43.4106 35.5366 43.5688 35.2672C43.7271 34.9978 43.8051 34.6072 43.8051 34.0934C43.8051 33.5796 43.7271 33.189 43.5688 32.9238C43.4106 32.6585 43.1595 32.5248 42.8156 32.5248C42.4717 32.5248 42.2206 32.6585 42.0624 32.9238C41.9041 33.189 41.826 33.5796 41.826 34.0934Z" fill="white"/>
<path d="M48.201 31.6577C48.68 31.6577 49.0534 31.7956 49.3214 32.0692C49.5893 32.3428 49.7244 32.773 49.7244 33.3558V36.449H48.6737V33.5897C48.6737 33.243 48.6146 32.9798 48.4943 32.8023C48.3741 32.6247 48.1842 32.5328 47.9204 32.5328C47.5406 32.5328 47.279 32.6665 47.1377 32.9318C46.9942 33.197 46.9224 33.6022 46.9224 34.1452V36.4511H45.8633V31.7454H46.6861L46.8254 32.3699H46.8866C47.0153 32.1339 47.1988 31.9543 47.4373 31.8373C47.6757 31.7204 47.931 31.6598 48.1989 31.6598L48.201 31.6577Z" fill="white"/>
<path d="M52.682 31.6577C53.8023 31.6577 54.3636 32.2028 54.3636 33.2952V36.449H53.6019L53.4099 35.8078H53.3846C53.1989 36.0626 53.0006 36.2464 52.7938 36.3633C52.587 36.4782 52.3106 36.5367 51.9667 36.5367C51.5574 36.5367 51.2325 36.4093 50.9899 36.1503C50.7472 35.8913 50.627 35.5404 50.627 35.0893C50.627 34.1306 51.281 33.6273 52.587 33.5813L53.3128 33.5563V33.3223C53.3128 33.0216 53.2495 32.8044 53.1208 32.6728C52.9921 32.5391 52.8107 32.4744 52.5786 32.4744C52.3803 32.4744 52.1819 32.5057 51.9836 32.5683C51.7853 32.6331 51.587 32.7125 51.3886 32.8106L51.0553 32.0566C51.2768 31.9355 51.5279 31.8394 51.8085 31.7663C52.0891 31.6932 52.3803 31.6577 52.6841 31.6577H52.682ZM53.3128 34.2225L52.8149 34.2392C52.4056 34.2559 52.1186 34.3374 51.952 34.4815C51.7853 34.6256 51.703 34.8261 51.703 35.0789C51.703 35.3044 51.7621 35.4694 51.8781 35.5718C51.9942 35.6762 52.1461 35.7284 52.3339 35.7284C52.6145 35.7284 52.8466 35.6344 53.0343 35.4464C53.22 35.2585 53.315 34.989 53.315 34.6361V34.2204L53.3128 34.2225Z" fill="white"/>
<path d="M56.6217 36.4491H55.5625V29.8638H56.6217V36.4491Z" fill="white"/>
<path d="M64.5173 33.2785C64.5173 34.3249 64.2557 35.1144 63.7345 35.6491C63.2113 36.1838 62.4749 36.4511 61.5234 36.4511H59.8945V30.2646H61.6711C62.5572 30.2646 63.2535 30.5215 63.7577 31.0353C64.262 31.5491 64.5152 32.2969 64.5152 33.2806L64.5173 33.2785ZM63.3885 33.3224C63.3885 32.5893 63.2408 32.0483 62.9454 31.6974C62.65 31.3486 62.2239 31.1732 61.6626 31.1732H60.979V35.5405H61.5402C62.1648 35.5405 62.6289 35.3546 62.9328 34.9807C63.2366 34.609 63.3885 34.0555 63.3885 33.3203V33.3224Z" fill="white"/>
<path d="M66.11 29.9346C66.2788 29.9346 66.4201 29.9805 66.5299 30.0724C66.6396 30.1643 66.6965 30.3126 66.6965 30.5152C66.6965 30.7178 66.6417 30.864 66.5299 30.958C66.418 31.0499 66.2788 31.0958 66.11 31.0958C65.9412 31.0958 65.7998 31.0499 65.6901 30.958C65.5804 30.8661 65.5234 30.7178 65.5234 30.5152C65.5234 30.3126 65.5762 30.1581 65.6859 30.0682C65.7935 29.9784 65.9349 29.9346 66.11 29.9346ZM66.6353 31.7454V36.451H65.5762V31.7454H66.6353Z" fill="white"/>
<path d="M69.3117 31.6577C69.586 31.6577 69.8287 31.7141 70.0375 31.8269C70.2464 31.9397 70.4279 32.1172 70.5798 32.3595H70.6241L70.7296 31.7433H71.6136V36.4218C71.6136 37.109 71.4364 37.6311 71.084 37.9904C70.7317 38.3496 70.1873 38.5271 69.451 38.5271C69.1472 38.5271 68.8708 38.5042 68.6197 38.4582C68.3686 38.4123 68.126 38.3371 67.8939 38.2327V37.3408C68.145 37.462 68.4024 37.5518 68.6682 37.6102C68.9341 37.6687 69.2062 37.6959 69.4869 37.6959C69.8308 37.6959 70.0966 37.604 70.2823 37.4181C70.468 37.2343 70.5629 36.9502 70.5629 36.5701V36.449C70.5629 36.3633 70.565 36.2589 70.5713 36.1378C70.5777 36.0166 70.5861 35.9122 70.5988 35.8266H70.5545C70.4089 36.0751 70.2295 36.2547 70.0164 36.3675C69.8033 36.4803 69.5586 36.5367 69.2864 36.5367C68.7611 36.5367 68.3517 36.3258 68.0564 35.9039C67.761 35.482 67.6133 34.8846 67.6133 34.1097C67.6133 33.3349 67.7631 32.7333 68.0648 32.3031C68.3644 31.8728 68.78 31.6577 69.3117 31.6577ZM69.5924 32.5412C68.991 32.5412 68.6914 33.0696 68.6914 34.1265C68.6914 35.1833 69.0016 35.6783 69.6198 35.6783C69.9531 35.6783 70.2 35.5697 70.3604 35.3525C70.5207 35.1352 70.6009 34.7802 70.6009 34.2831V34.093C70.6009 33.5437 70.5207 33.149 70.3604 32.9067C70.2 32.6644 69.9447 32.5433 69.5945 32.5433L69.5924 32.5412Z" fill="white"/>
<path d="M73.3737 29.9346C73.5424 29.9346 73.6838 29.9805 73.7935 30.0724C73.9032 30.1643 73.9602 30.3126 73.9602 30.5152C73.9602 30.7178 73.9054 30.864 73.7935 30.958C73.6817 31.0499 73.5424 31.0958 73.3737 31.0958C73.2049 31.0958 73.0635 31.0499 72.9538 30.958C72.8441 30.8661 72.7871 30.7178 72.7871 30.5152C72.7871 30.3126 72.8399 30.1581 72.9496 30.0682C73.0572 29.9784 73.1985 29.9346 73.3737 29.9346ZM73.899 31.7454V36.451H72.8399V31.7454H73.899Z" fill="white"/>
<path d="M76.8155 35.6701C76.9315 35.6701 77.0454 35.6596 77.1573 35.6346C77.267 35.6116 77.3767 35.5824 77.4822 35.5489V36.3468C77.3661 36.4053 77.2248 36.4512 77.0581 36.4846C76.8914 36.5181 76.7142 36.5369 76.5285 36.5369C76.1382 36.5369 75.8217 36.4282 75.5791 36.2069C75.3364 35.9875 75.2162 35.6053 75.2162 35.0623V32.5664H74.6465V32.0735L75.2858 31.7351L75.5917 30.7222H76.2753V31.7456H77.4315V32.5685H76.2753V35.0393C76.2753 35.2524 76.3238 35.4111 76.4188 35.5155C76.5158 35.62 76.6467 35.6722 76.8176 35.6722L76.8155 35.6701Z" fill="white"/>
<path d="M80.0355 31.6577C81.1559 31.6577 81.7171 32.2028 81.7171 33.2952V36.449H80.9554L80.7634 35.8078H80.7381C80.5524 36.0626 80.3541 36.2464 80.1473 36.3633C79.9406 36.4782 79.6642 36.5367 79.3202 36.5367C78.9109 36.5367 78.586 36.4093 78.3434 36.1503C78.1007 35.8913 77.9805 35.5404 77.9805 35.0893C77.9805 34.1306 78.6345 33.6273 79.9406 33.5813L80.6664 33.5563V33.3223C80.6664 33.0216 80.6031 32.8044 80.4744 32.6728C80.3457 32.5391 80.1642 32.4744 79.9321 32.4744C79.7338 32.4744 79.5355 32.5057 79.3371 32.5683C79.1388 32.6331 78.9405 32.7125 78.7421 32.8106L78.4088 32.0566C78.6303 31.9355 78.8814 31.8394 79.162 31.7663C79.4426 31.6932 79.7338 31.6577 80.0376 31.6577H80.0355ZM80.6664 34.2225L80.1684 34.2392C79.7591 34.2559 79.4722 34.3374 79.3055 34.4815C79.1388 34.6256 79.0565 34.8261 79.0565 35.0789C79.0565 35.3044 79.1156 35.4694 79.2316 35.5718C79.3477 35.6762 79.4996 35.7284 79.6874 35.7284C79.968 35.7284 80.2001 35.6344 80.3879 35.4464C80.5735 35.2585 80.6685 34.989 80.6685 34.6361V34.2204L80.6664 34.2225Z" fill="white"/>
<path d="M83.9732 36.4491H82.9141V29.8638H83.9732V36.4491Z" fill="white"/>
<path d="M90.6801 36.4493L90.1821 34.8034H88.1777L87.6777 36.4493H86.5215L88.5259 30.2461H89.8129L91.8342 36.4493H90.678H90.6801ZM89.9353 33.8761L89.4542 32.2031C89.4247 32.1112 89.393 31.9984 89.3572 31.8648C89.3213 31.7332 89.2876 31.5995 89.2517 31.4658C89.2158 31.3322 89.1905 31.2173 89.1736 31.1191C89.1441 31.2862 89.1019 31.4784 89.047 31.6914C88.9922 31.9044 88.9436 32.0757 88.9036 32.2031L88.4225 33.8761H89.9374H89.9353Z" fill="white"/>
<path d="M93.8762 31.6577C94.1505 31.6577 94.3931 31.7141 94.602 31.8269C94.8109 31.9397 94.9923 32.1172 95.1442 32.3595H95.1886L95.294 31.7433H96.1781V36.4218C96.1781 37.109 96.0009 37.6311 95.6485 37.9904C95.2962 38.3496 94.7518 38.5271 94.0155 38.5271C93.7116 38.5271 93.4352 38.5042 93.1842 38.4582C92.9331 38.4123 92.6904 38.3371 92.4584 38.2327V37.3408C92.7094 37.462 92.9668 37.5518 93.2327 37.6102C93.4985 37.6687 93.7707 37.6959 94.0513 37.6959C94.3952 37.6959 94.6611 37.604 94.8468 37.4181C95.0324 37.2343 95.1274 36.9502 95.1274 36.5701V36.449C95.1274 36.3633 95.1295 36.2589 95.1358 36.1378C95.1421 36.0166 95.1506 35.9122 95.1632 35.8266H95.1189C94.9733 36.0751 94.794 36.2547 94.5809 36.3675C94.3678 36.4803 94.1231 36.5367 93.8509 36.5367C93.3255 36.5367 92.9162 36.3258 92.6208 35.9039C92.3254 35.482 92.1777 34.8846 92.1777 34.1097C92.1777 33.3349 92.3275 32.7333 92.6293 32.3031C92.9289 31.8728 93.3445 31.6577 93.8762 31.6577ZM94.1568 32.5412C93.5555 32.5412 93.2559 33.0696 93.2559 34.1265C93.2559 35.1833 93.566 35.6783 94.1842 35.6783C94.5176 35.6783 94.7645 35.5697 94.9248 35.3525C95.0852 35.1352 95.1653 34.7802 95.1653 34.2831V34.093C95.1653 33.5437 95.0852 33.149 94.9248 32.9067C94.7645 32.6644 94.5092 32.5433 94.1589 32.5433L94.1568 32.5412Z" fill="white"/>
<path d="M99.1439 31.666C99.7389 31.666 100.203 31.8561 100.534 32.2383C100.868 32.6205 101.034 33.1364 101.034 33.7901V34.3541H98.224C98.2303 34.7927 98.3337 35.1289 98.5342 35.3629C98.7346 35.5968 99.0237 35.7137 99.3971 35.7137C99.6587 35.7137 99.9014 35.6845 100.123 35.6281C100.345 35.5717 100.572 35.4819 100.807 35.3587V36.2171C100.585 36.3278 100.357 36.4072 100.123 36.4594C99.8887 36.5116 99.6208 36.5366 99.3169 36.5366C98.6397 36.5366 98.1101 36.3299 97.7282 35.9122C97.3463 35.4965 97.1543 34.9034 97.1543 34.1368C97.1543 33.3703 97.3315 32.7208 97.6881 32.2989C98.0447 31.877 98.5278 31.666 99.1418 31.666H99.1439ZM99.1524 32.4534C98.8907 32.4534 98.6776 32.5474 98.5173 32.7354C98.3569 32.9234 98.2641 33.2137 98.2409 33.6063H100.026C100.02 33.2722 99.9457 32.9965 99.8022 32.7792C99.6587 32.562 99.4414 32.4534 99.1503 32.4534H99.1524Z" fill="white"/>
<path d="M104.326 31.6577C104.805 31.6577 105.178 31.7956 105.446 32.0692C105.714 32.3428 105.849 32.773 105.849 33.3558V36.449H104.799V33.5897C104.799 33.243 104.74 32.9798 104.619 32.8023C104.499 32.6247 104.309 32.5328 104.045 32.5328C103.666 32.5328 103.404 32.6665 103.263 32.9318C103.119 33.197 103.047 33.6022 103.047 34.1452V36.4511H101.988V31.7454H102.811L102.95 32.3699H103.012C103.14 32.1339 103.324 31.9543 103.562 31.8373C103.801 31.7204 104.056 31.6598 104.324 31.6598L104.326 31.6577Z" fill="white"/>
<path d="M108.826 36.5367C108.185 36.5367 107.687 36.3404 107.334 35.9477C106.982 35.5551 106.805 34.9473 106.805 34.1285C106.805 33.3098 106.992 32.6916 107.366 32.278C107.739 31.8645 108.248 31.6577 108.889 31.6577C109.157 31.6577 109.398 31.6849 109.607 31.7392C109.816 31.7935 110.001 31.8645 110.157 31.9522L109.851 32.7751C109.693 32.7062 109.537 32.6498 109.379 32.6059C109.221 32.5621 109.066 32.5412 108.915 32.5412C108.225 32.5412 107.881 33.0675 107.881 34.1181C107.881 35.1687 108.223 35.6595 108.904 35.6595C109.126 35.6595 109.33 35.6282 109.516 35.5676C109.702 35.507 109.881 35.4256 110.05 35.3211V36.2213C109.729 36.4281 109.32 36.5325 108.824 36.5325L108.826 36.5367Z" fill="white"/>
<path d="M110.367 31.7457H111.507L112.321 34.3189C112.374 34.4797 112.418 34.6447 112.456 34.8076C112.494 34.9706 112.522 35.1356 112.541 35.2985H112.574C112.598 35.1543 112.629 34.9998 112.671 34.8348C112.711 34.6698 112.758 34.4985 112.811 34.3189L113.589 31.7457H114.718L112.914 37.0487C112.752 37.5395 112.528 37.9092 112.245 38.1578C111.962 38.4063 111.61 38.5295 111.19 38.5295C111.068 38.5295 110.956 38.5212 110.857 38.5087C110.758 38.494 110.667 38.4773 110.585 38.4606V37.6022C110.644 37.6147 110.713 37.6252 110.796 37.6377C110.878 37.6502 110.958 37.6544 111.04 37.6544C111.275 37.6544 111.458 37.5813 111.591 37.4372C111.724 37.2931 111.838 37.0842 111.933 36.8127L112.055 36.4221L110.365 31.7437L110.367 31.7457Z" fill="white"/>
<path d="M1.93262 21.8662V23.4055C1.93262 24.1073 2.11829 24.5981 2.48963 24.8843C2.86097 25.1683 3.50237 25.3103 4.40963 25.3103C5.20084 25.3103 5.77261 25.2142 6.12497 25.0221C6.55538 24.7924 6.80224 24.383 6.86554 23.794H6.13763L5.52787 23.086V22.6661H8.76866V23.7961H8.32136C8.25807 24.7192 7.86774 25.4127 7.14615 25.8784C6.58281 26.2544 5.86545 26.4424 4.99829 26.4424H3.83574C2.84831 26.4424 2.06132 26.2022 1.47477 25.7218C0.824923 25.2205 0.5 24.4895 0.5 23.5287V22.4113L1.22791 21.8683H1.93262V21.8662ZM3.48339 27.0815C3.69437 27.0815 3.87371 27.1525 4.02352 27.2924C4.17121 27.4324 4.24716 27.6036 4.24716 27.802C4.24716 28.0005 4.17332 28.1717 4.02352 28.3117C3.87371 28.4516 3.69437 28.5226 3.48339 28.5226C3.2724 28.5226 3.09094 28.4516 2.94325 28.3117C2.79556 28.1717 2.7196 28.0025 2.7196 27.802C2.7196 27.6015 2.79345 27.4324 2.94325 27.2924C3.09094 27.1525 3.2724 27.0815 3.48339 27.0815ZM5.26835 27.0815C5.47934 27.0815 5.65868 27.1525 5.80848 27.2924C5.95618 27.4324 6.03213 27.6036 6.03213 27.802C6.03213 28.0005 5.95829 28.1717 5.80848 28.3117C5.65868 28.4516 5.47934 28.5226 5.26835 28.5226C5.05736 28.5226 4.88857 28.4516 4.73877 28.3117C4.58897 28.1717 4.51512 28.0025 4.51512 27.802C4.51512 27.6015 4.58897 27.4324 4.73877 27.2924C4.88646 27.1525 5.06369 27.0815 5.26835 27.0815Z" fill="white"/>
<path d="M11.2821 18.698V22.6622H11.8813V23.7921H11.4699L11.0353 23.3389H11.012C10.7462 23.6417 10.4128 23.7921 10.0141 23.7921H7.74805V22.6622H9.52035C9.63007 22.6622 9.70814 22.6329 9.75455 22.5724C9.82418 22.5139 9.86005 22.4408 9.86005 22.351V18.698H11.28H11.2821ZM10.5669 16.2627C10.7778 16.2627 10.9572 16.3337 11.107 16.4736C11.2547 16.6136 11.3306 16.7828 11.3306 16.9833C11.3306 17.1838 11.2568 17.3425 11.107 17.4824C10.9593 17.6224 10.7778 17.6934 10.5669 17.6934C10.3559 17.6934 10.1871 17.6224 10.0373 17.4824C9.88959 17.3425 9.81363 17.1754 9.81363 16.9833C9.81363 16.7911 9.88748 16.6136 10.0373 16.4736C10.185 16.3337 10.3622 16.2627 10.5669 16.2627Z" fill="white"/>
<path d="M15.3231 15.8639V20.5591C16.3717 19.2224 17.6757 18.554 19.2349 18.554C20.1653 18.554 20.9333 18.8339 21.5368 19.3957C22.0917 19.9054 22.3702 20.5361 22.3702 21.288V22.5725C22.3702 22.9192 22.233 23.2137 21.9587 23.4581C21.7077 23.6795 21.4228 23.7902 21.1021 23.7902H11.7891V22.6602H13.9032V15.8618H15.3252L15.3231 15.8639ZM20.9354 21.3549C20.927 20.8974 20.7666 20.5278 20.4544 20.2479C20.0936 19.8949 19.6041 19.7174 18.9859 19.7174C18.3677 19.7174 17.7601 19.9137 17.1904 20.3043C16.454 20.8056 15.8316 21.593 15.3231 22.6623H20.6422C20.8384 22.6623 20.9354 22.5704 20.9354 22.3845V21.3549Z" fill="white"/>
<path d="M26.5371 23.7921C25.6762 23.7921 24.9989 23.5143 24.5052 22.9629C24.0896 22.4909 23.8828 21.9061 23.8828 21.2127C23.8828 20.3856 24.1297 19.7402 24.6234 19.2744C25.1403 18.8024 25.8007 18.5664 26.6088 18.5664C27.1953 18.5664 27.7038 18.7022 28.1364 18.9758C28.6997 19.3601 28.9824 19.9052 28.9824 20.6153V22.6643H29.358V23.7942H28.9698C28.9149 24.592 28.6174 25.2144 28.0773 25.6656C27.7017 25.9831 27.2523 26.2003 26.7269 26.3193C26.3598 26.4008 25.999 26.4405 25.6467 26.4405C25.5285 26.4405 25.3618 26.4321 25.1424 26.4175H25.1065L24.5073 25.7199V25.2332C24.828 25.2855 25.1298 25.3105 25.4125 25.3105C26.6953 25.3105 27.3979 24.8051 27.5139 23.7942H26.5392L26.5371 23.7921ZM27.5477 20.6153C27.5477 20.3208 27.4464 20.0869 27.2418 19.9177C27.0603 19.7694 26.8493 19.6963 26.6067 19.6963C26.2079 19.6963 25.8914 19.8279 25.6551 20.0953C25.4209 20.3605 25.3028 20.726 25.3028 21.1918C25.3028 21.6575 25.4315 22.0001 25.691 22.2653C25.9484 22.5306 26.3007 22.6643 26.748 22.6643H27.5456V20.6153H27.5477Z" fill="white"/>
<path d="M32.8075 15.8639V22.5725C32.8075 22.8837 32.702 23.149 32.491 23.3704C32.2484 23.6502 31.9319 23.7902 31.5395 23.7902H29.2734V22.6602H31.0816C31.1681 22.6602 31.242 22.631 31.3053 22.5704C31.3601 22.5182 31.3875 22.4556 31.3875 22.3825V15.8618H32.8075V15.8639Z" fill="white"/>
<path d="M36.0732 15.8638V23.5143L35.3453 24.0678H34.6406V15.8638H36.0732Z" fill="white"/>
<path d="M49.3907 15.8638V23.5248C49.3907 24.402 49.1079 25.0975 48.5446 25.6071C47.9496 26.1606 47.1204 26.4363 46.0549 26.4363H44.8924C43.867 26.4363 43.0568 26.1815 42.4618 25.6719C41.8584 25.1622 41.5566 24.4459 41.5566 23.5248V21.5427L42.2845 20.9892H42.9893V23.4036C42.9893 24.1054 43.1749 24.5962 43.5463 24.8824C43.9176 25.1664 44.5611 25.3085 45.4789 25.3085C46.3967 25.3085 46.9854 25.179 47.3462 24.92C47.7534 24.6255 47.9559 24.1179 47.9559 23.4036V15.8638H49.3886H49.3907Z" fill="white"/>
<path d="M52.6572 15.8638V22.3844C52.6572 22.4575 52.6804 22.5181 52.729 22.5619C52.7754 22.6288 52.8492 22.6622 52.9526 22.6622H53.2585V23.7921H52.4948C52.1741 23.7921 51.8913 23.6856 51.6487 23.4705C51.366 23.2261 51.2246 22.9274 51.2246 22.5745V15.8659H52.6572V15.8638Z" fill="white"/>
<path d="M56.7079 18.698V22.6622H57.3071V23.7921H56.8957L56.461 23.3389H56.4378C56.172 23.6417 55.8386 23.7921 55.4398 23.7921H53.1738V22.6622H54.9461C55.0558 22.6622 55.1339 22.6329 55.1803 22.5724C55.25 22.5139 55.2858 22.4408 55.2858 22.351V18.698H56.7058H56.7079ZM54.3132 16.2627C54.5242 16.2627 54.7035 16.3337 54.8533 16.4736C55.001 16.6136 55.0769 16.7828 55.0769 16.9833C55.0769 17.1838 55.0031 17.3425 54.8533 17.4824C54.7056 17.6224 54.5242 17.6934 54.3132 17.6934C54.1022 17.6934 53.9207 17.6224 53.773 17.4824C53.6253 17.3425 53.5494 17.1754 53.5494 16.9833C53.5494 16.7911 53.6232 16.6136 53.773 16.4736C53.9207 16.3337 54.1022 16.2627 54.3132 16.2627ZM56.0981 16.2627C56.3091 16.2627 56.4906 16.3337 56.6383 16.4736C56.786 16.6136 56.8619 16.7828 56.8619 16.9833C56.8619 17.1838 56.7881 17.3425 56.6383 17.4824C56.4906 17.6224 56.3091 17.6934 56.0981 17.6934C55.8871 17.6934 55.7184 17.6224 55.5707 17.4824C55.4209 17.3425 55.347 17.1754 55.347 16.9833C55.347 16.7911 55.4209 16.6136 55.5707 16.4736C55.7184 16.3337 55.8956 16.2627 56.0981 16.2627Z" fill="white"/>
<path d="M60.7587 18.6982V22.6624H61.3579V23.7924H60.9465L60.5118 23.3391H60.4886C60.2228 23.642 59.8894 23.7924 59.4906 23.7924H57.2246V22.6624H58.9969C59.1066 22.6624 59.1847 22.6332 59.2311 22.5726C59.3007 22.5141 59.3366 22.441 59.3366 22.3512V18.6982H60.7566H60.7587ZM58.2099 24.5986C58.4209 24.5986 58.6003 24.6696 58.7501 24.8095C58.8978 24.9494 58.9737 25.1186 58.9737 25.3191C58.9737 25.5196 58.8999 25.6888 58.7501 25.8287C58.6003 25.9687 58.4209 26.0397 58.2099 26.0397C57.9989 26.0397 57.8196 25.9687 57.6698 25.8287C57.52 25.6888 57.4462 25.5175 57.4462 25.3191C57.4462 25.1207 57.52 24.9494 57.6698 24.8095C57.8175 24.6696 57.9989 24.5986 58.2099 24.5986ZM59.9949 24.5986C60.2059 24.5986 60.3852 24.6696 60.535 24.8095C60.6827 24.9494 60.7587 25.1186 60.7587 25.3191C60.7587 25.5196 60.6848 25.6888 60.535 25.8287C60.3852 25.9687 60.2059 26.0397 59.9949 26.0397C59.7839 26.0397 59.6151 25.9687 59.4653 25.8287C59.3176 25.6888 59.2417 25.5175 59.2417 25.3191C59.2417 25.1207 59.3155 24.9494 59.4653 24.8095C59.613 24.6696 59.7902 24.5986 59.9949 24.5986Z" fill="white"/>
<path d="M62.8269 18.8861C63.5696 18.6731 64.2469 18.5645 64.8588 18.5645C65.8061 18.5645 66.5699 18.8443 67.1501 19.4062C67.6734 19.9074 67.9371 20.5424 67.9371 21.311V22.6623H68.3253V23.7922H68.0785L67.6902 23.339H67.667C67.4012 23.6419 67.0678 23.7922 66.6691 23.7922H61.2656V22.6623H66.2091C66.4053 22.6623 66.5024 22.5704 66.5024 22.3845V21.3883C66.5024 20.887 66.3251 20.4818 65.9686 20.1769C65.612 19.8698 65.1436 19.7174 64.5655 19.7174C64.1815 19.7174 63.6034 19.7988 62.8269 19.9617V18.8882V18.8861ZM64.4705 24.5984C64.6815 24.5984 64.8609 24.6695 65.0107 24.8094C65.1584 24.9493 65.2343 25.1185 65.2343 25.319C65.2343 25.5195 65.1605 25.6887 65.0107 25.8286C64.8609 25.9686 64.6815 26.0396 64.4705 26.0396C64.2596 26.0396 64.0908 25.9686 63.941 25.8286C63.7933 25.6887 63.7173 25.5174 63.7173 25.319C63.7173 25.1206 63.7912 24.9493 63.941 24.8094C64.0887 24.6695 64.2659 24.5984 64.4705 24.5984Z" fill="white"/>
<path d="M71.7743 18.6979V22.5723C71.7743 22.8605 71.673 23.1257 71.4684 23.3701C71.211 23.65 70.8881 23.7899 70.5063 23.7899H68.2402V22.66H70.0484C70.1349 22.66 70.2088 22.6307 70.2721 22.5702C70.3269 22.518 70.3543 22.4553 70.3543 22.3822V18.6958H71.7743V18.6979ZM69.2023 24.5982C69.4133 24.5982 69.5927 24.6692 69.7425 24.8092C69.8902 24.9491 69.9661 25.1183 69.9661 25.3188C69.9661 25.5193 69.8923 25.6885 69.7425 25.8284C69.5948 25.9683 69.4133 26.0393 69.2023 26.0393C68.9914 26.0393 68.8226 25.9683 68.6728 25.8284C68.523 25.6885 68.4491 25.5172 68.4491 25.3188C68.4491 25.1204 68.523 24.9491 68.6728 24.8092C68.8205 24.6692 68.9977 24.5982 69.2023 24.5982ZM70.9979 24.5982C71.2089 24.5982 71.3882 24.6692 71.5317 24.8092C71.6772 24.9491 71.749 25.1183 71.749 25.3188C71.749 25.5193 71.6772 25.6885 71.5317 25.8284C71.3861 25.9683 71.2089 26.0393 70.9979 26.0393C70.7869 26.0393 70.6075 25.9683 70.4577 25.8284C70.3079 25.6885 70.2341 25.5172 70.2341 25.3188C70.2341 25.1204 70.3079 24.9491 70.4577 24.8092C70.6054 24.6692 70.7869 24.5982 70.9979 24.5982Z" fill="white"/>
<path d="M74.4652 18.6332C74.7311 18.5894 75.0412 18.5664 75.3936 18.5664C76.2945 18.5664 77.0224 18.84 77.5773 19.3851C78.071 19.8801 78.3179 20.4921 78.3179 21.2231V22.2862C78.3179 22.4554 78.3136 22.5807 78.3052 22.6622H78.6111V23.7921H78.4592L78.071 23.3389H78.0351C77.9718 23.4057 77.9064 23.4684 77.8347 23.5268C77.6005 23.7044 77.3368 23.7921 77.0477 23.7921H73.2773V22.6622H76.5899C76.7861 22.6622 76.8831 22.5703 76.8831 22.3844V21.3547C76.8831 20.8451 76.7186 20.4357 76.3894 20.1245C76.0835 19.8363 75.6404 19.6817 75.0623 19.6587C74.7965 19.6587 74.596 19.6734 74.4631 19.7026V18.6291L74.4652 18.6332Z" fill="white"/>
<path d="M82.0614 15.8639V22.5725C82.0614 22.8837 81.9559 23.149 81.7449 23.3704C81.5023 23.6502 81.1858 23.7902 80.7934 23.7902H78.5273V22.6602H80.3355C80.422 22.6602 80.4959 22.631 80.5592 22.5704C80.614 22.5182 80.6415 22.4556 80.6415 22.3825V15.8618H82.0614V15.8639Z" fill="white"/>
<path d="M85.3271 15.8638V23.5143L84.5992 24.0678H83.8945V15.8638H85.3271Z" fill="white"/>
<path d="M91.8227 22.6623C91.4935 22.2258 91.329 21.7036 91.329 21.0896C91.3374 20.2855 91.6265 19.6505 92.1982 19.1848C92.692 18.7796 93.3102 18.5728 94.055 18.5645C94.8609 18.5645 95.4791 18.7963 95.9095 19.262C96.2535 19.6088 96.4265 20.0599 96.4265 20.6134V22.5725C96.4265 22.9484 96.2788 23.2555 95.9792 23.4915C95.745 23.6899 95.4707 23.7902 95.1563 23.7902H92.1497C91.9535 23.7902 91.8564 23.882 91.8564 24.0679V27.3784L91.1285 27.9214H90.4238V23.88C90.4238 23.5479 90.542 23.2617 90.7825 23.0215C91.0209 22.7814 91.3058 22.6623 91.6349 22.6623H91.8227ZM94.9939 20.6134C94.9939 20.3105 94.8884 20.0787 94.6774 19.9158C94.5044 19.7675 94.2934 19.6944 94.0444 19.6944C93.652 19.6944 93.3397 19.8281 93.1055 20.0975C92.8713 20.3669 92.7531 20.7241 92.7531 21.1669C92.7531 21.6096 92.8755 21.9877 93.1224 22.2571C93.3692 22.5265 93.7068 22.6623 94.1372 22.6623H94.7006C94.8968 22.6623 94.9939 22.5704 94.9939 22.3845V20.6134Z" fill="white"/>
<path d="M99.5263 15.8638V22.3844C99.5263 22.4575 99.5495 22.5181 99.598 22.5619C99.6444 22.6288 99.7183 22.6622 99.8217 22.6622H100.128V23.7921H99.3638C99.0431 23.7921 98.7604 23.6856 98.5177 23.4705C98.235 23.2261 98.0938 22.9274 98.0938 22.5745V15.8659H99.5263V15.8638Z" fill="white"/>
<path d="M103.579 15.8639V20.5591C104.645 19.2224 105.944 18.554 107.478 18.554C108.417 18.554 109.19 18.8339 109.791 19.3957C110.348 19.897 110.624 20.5278 110.624 21.288V22.3407C110.624 22.3699 110.62 22.4263 110.612 22.5057V22.6602H111V23.7902H110.766L110.377 23.3369H110.342C110.084 23.6398 109.755 23.7902 109.354 23.7902H100.041V22.6602H102.155V15.8618H103.575L103.579 15.8639ZM109.194 21.3549C109.185 20.793 108.955 20.3649 108.502 20.0704C108.158 19.8344 107.738 19.7153 107.244 19.7153C106.664 19.7153 106.105 19.8845 105.565 20.2249C104.773 20.7199 104.111 21.5303 103.579 22.6602H108.9C109.097 22.6602 109.194 22.5683 109.194 22.3825V21.3528V21.3549ZM106.704 16.2607C106.915 16.2607 107.096 16.3318 107.244 16.4717C107.392 16.6116 107.468 16.7808 107.468 16.9813C107.468 17.1818 107.394 17.3406 107.244 17.4805C107.096 17.6204 106.915 17.6914 106.704 17.6914C106.493 17.6914 106.324 17.6204 106.177 17.4805C106.027 17.3406 105.953 17.1735 105.953 16.9813C105.953 16.7892 106.027 16.6116 106.177 16.4717C106.324 16.3318 106.502 16.2607 106.704 16.2607Z" fill="white"/>
<path d="M114.452 18.698V22.5724C114.452 22.8606 114.351 23.1259 114.146 23.3702C113.889 23.6501 113.566 23.79 113.184 23.79H110.918V22.6601H112.726C112.813 22.6601 112.886 22.6309 112.95 22.5703C113.005 22.5181 113.032 22.4554 113.032 22.3823V18.6959H114.452V18.698ZM113.737 16.2627C113.948 16.2627 114.127 16.3337 114.277 16.4736C114.425 16.6136 114.501 16.7828 114.501 16.9833C114.501 17.1838 114.427 17.3425 114.277 17.4824C114.129 17.6224 113.948 17.6934 113.737 17.6934C113.526 17.6934 113.357 17.6224 113.207 17.4824C113.06 17.3425 112.984 17.1754 112.984 16.9833C112.984 16.7911 113.057 16.6136 113.207 16.4736C113.355 16.3337 113.532 16.2627 113.737 16.2627Z" fill="white"/>
</g>
<defs>
<clipPath id="clip0_11216_220791">
<rect width="167" height="42" fill="white" transform="translate(0.5)"/>
</clipPath>
</defs>
</svg>
